<?xml version="1.0" encoding="UTF-8" standalone="no"?>
<svg
   viewBox="0 0 3333.3333 1993.3333"
   height="1993.3333"
   width="3333.3333"
   xml:space="preserve"
   id="svg2"
   version="1.1"
   sodipodi:docname="AWS-Amazon-Web-Services.svg"
   inkscape:version="1.3.2 (091e20ef0f, 2023-11-25)"
   xmlns:inkscape="http://www.inkscape.org/namespaces/inkscape"
   xmlns:sodipodi="http://sodipodi.sourceforge.net/DTD/sodipodi-0.dtd"
   xmlns="http://www.w3.org/2000/svg"
   xmlns:svg="http://www.w3.org/2000/svg"
   xmlns:rdf="http://www.w3.org/1999/02/22-rdf-syntax-ns#"
   xmlns:cc="http://creativecommons.org/ns#"
   xmlns:dc="http://purl.org/dc/elements/1.1/"><sodipodi:namedview
     id="namedview1"
     pagecolor="#ffffff"
     bordercolor="#000000"
     borderopacity="0.25"
     inkscape:showpageshadow="2"
     inkscape:pageopacity="0.0"
     inkscape:pagecheckerboard="0"
     inkscape:deskcolor="#d1d1d1"
     inkscape:zoom="0.42541808"
     inkscape:cx="1667.7712"
     inkscape:cy="996.66663"
     inkscape:window-width="2560"
     inkscape:window-height="1052"
     inkscape:window-x="0"
     inkscape:window-y="0"
     inkscape:window-maximized="1"
     inkscape:current-layer="svg2" /><metadata
     id="metadata8"><rdf:RDF><cc:Work
         rdf:about=""><dc:format>image/svg+xml</dc:format><dc:type
           rdf:resource="http://purl.org/dc/dcmitype/StillImage" /></cc:Work></rdf:RDF></metadata><defs
     id="defs6"><clipPath
       id="clipPath18"
       clipPathUnits="userSpaceOnUse"><path
         id="path16"
         d="M 0,1495 H 2500 V 0 H 0 Z" /></clipPath></defs><g
     transform="matrix(1.3333333,0,0,-1.3333333,0,1993.3333)"
     id="g10"
     style="fill:#ffffff"><g
       id="g12"
       style="fill:#ffffff"><g
         clip-path="url(#clipPath18)"
         id="g14"
         style="fill:#ffffff"><g
           transform="translate(2023.7705,716.5625)"
           id="g20"
           style="fill:#ffffff"><path
             id="path22"
             style="fill:#ffffff;fill-opacity:1;fill-rule:nonzero;stroke:none"
             d="m 0,0 c -39.237,0 -78.475,4.527 -116.203,13.583 -37.729,9.055 -67.156,18.864 -86.776,30.182 -12.072,6.791 -20.373,14.337 -23.39,21.128 -3.019,6.791 -4.528,14.336 -4.528,21.128 v 38.482 c 0,15.847 6.037,23.392 17.355,23.392 4.527,0 9.055,-0.754 13.582,-2.264 4.527,-1.509 11.318,-4.527 18.864,-7.545 25.656,-11.319 53.575,-20.374 83.002,-26.41 30.183,-6.037 59.611,-9.055 89.793,-9.055 47.538,0 84.512,8.3 110.167,24.901 25.655,16.6 39.238,40.747 39.238,71.684 0,21.127 -6.792,38.482 -20.374,52.819 -13.582,14.337 -39.237,27.164 -76.21,39.237 l -109.413,33.956 c -55.083,17.355 -95.83,43.01 -120.73,76.966 -24.9,33.2 -37.729,70.174 -37.729,109.411 0,31.692 6.791,59.611 20.373,83.757 13.583,24.146 31.693,45.274 54.33,61.874 22.636,17.355 48.292,30.183 78.474,39.238 30.183,9.055 61.874,12.827 95.075,12.827 16.601,0 33.956,-0.754 50.556,-3.018 17.356,-2.264 33.201,-5.282 49.047,-8.3 15.092,-3.773 29.429,-7.546 43.011,-12.074 13.582,-4.527 24.145,-9.054 31.691,-13.582 10.565,-6.036 18.109,-12.072 22.637,-18.863 4.528,-6.037 6.791,-14.337 6.791,-24.901 v -35.465 c 0,-15.846 -6.036,-24.146 -17.355,-24.146 -6.036,0 -15.845,3.018 -28.673,9.055 -43.01,19.619 -91.302,29.428 -144.876,29.428 -43.01,0 -76.966,-6.791 -100.358,-21.128 -23.392,-14.337 -35.464,-36.219 -35.464,-67.156 0,-21.128 7.545,-39.238 22.637,-53.574 15.091,-14.337 43.01,-28.673 83.002,-41.501 L 114.694,390.11 c 54.328,-17.355 93.566,-41.501 116.957,-72.438 23.392,-30.937 34.71,-66.401 34.71,-105.639 0,-32.446 -6.791,-61.874 -19.618,-87.53 C 233.161,98.848 215.051,76.211 191.66,58.102 168.269,39.238 140.35,25.655 107.903,15.846 73.947,5.282 38.483,0 0,0 m -969.616,20.374 c -13.582,0 -22.637,2.264 -28.673,7.545 -6.037,4.528 -11.319,15.092 -15.846,29.428 l -177.323,583.279 c -4.527,15.091 -6.791,24.9 -6.791,30.183 0,12.072 6.037,18.863 18.11,18.863 h 73.947 c 14.337,0 24.146,-2.263 29.428,-7.545 6.036,-4.527 10.564,-15.091 15.091,-29.428 l 126.767,-499.522 117.712,499.522 c 3.773,15.091 8.3,24.901 14.337,29.428 6.037,4.527 16.6,7.545 30.182,7.545 h 60.365 c 14.337,0 24.147,-2.263 30.183,-7.545 6.037,-4.527 11.318,-15.091 14.337,-29.428 l 119.222,-505.558 130.539,505.558 c 4.527,15.091 9.809,24.901 15.092,29.428 6.036,4.527 15.845,7.545 29.427,7.545 h 70.175 c 12.073,0 18.864,-6.036 18.864,-18.863 0,-3.773 -0.755,-7.546 -1.509,-12.074 -0.754,-4.527 -2.264,-10.564 -5.282,-18.864 L -473.112,56.593 c -4.528,-15.092 -9.81,-24.901 -15.846,-29.428 -6.037,-4.527 -15.846,-7.546 -28.674,-7.546 h -64.892 c -14.337,0 -24.146,2.264 -30.183,7.546 -6.036,5.282 -11.318,15.091 -14.337,30.182 L -744.001,544.042 -860.204,58.102 c -3.773,-15.091 -8.3,-24.901 -14.337,-30.183 -6.036,-5.281 -16.6,-7.545 -30.182,-7.545 z m -605.915,81.493 c 24.9,0 50.555,4.527 77.72,13.582 27.164,9.054 51.311,25.655 71.684,48.292 12.073,14.337 21.127,30.182 25.655,48.292 4.527,18.11 7.545,39.992 7.545,65.647 v 31.692 c -21.882,5.282 -45.274,9.809 -69.42,12.828 -24.146,3.018 -47.537,4.527 -70.929,4.527 -50.556,0 -87.529,-9.81 -112.43,-30.183 -24.9,-20.373 -36.974,-49.046 -36.974,-86.774 0,-35.465 9.055,-61.875 27.919,-79.984 18.11,-18.865 44.52,-27.919 79.23,-27.919 m 306.353,114.694 c 0,-27.919 3.018,-50.557 8.3,-67.157 6.037,-16.6 13.583,-34.71 24.146,-54.328 3.773,-6.037 5.282,-12.074 5.282,-17.355 0,-7.546 -4.527,-15.092 -14.337,-22.638 l -47.537,-31.691 c -6.791,-4.528 -13.582,-6.791 -19.619,-6.791 -7.545,0 -15.091,3.773 -22.637,10.564 -10.564,11.318 -19.618,23.391 -27.164,35.464 -7.546,12.828 -15.091,27.164 -23.392,44.519 -58.856,-69.419 -132.803,-104.129 -221.842,-104.129 -63.383,0 -113.939,18.109 -150.913,54.328 -36.973,36.219 -55.838,84.511 -55.838,144.877 0,64.138 22.638,116.203 68.666,155.44 46.028,39.237 107.148,58.856 184.868,58.856 25.655,0 52.066,-2.264 79.984,-6.037 27.919,-3.773 56.593,-9.809 86.775,-16.6 v 55.083 c 0,57.347 -12.073,97.339 -35.464,120.731 -24.146,23.391 -64.893,34.71 -122.995,34.71 -26.409,0 -53.573,-3.019 -81.492,-9.81 -27.919,-6.791 -55.084,-15.091 -81.493,-25.655 -12.074,-5.282 -21.128,-8.3 -26.41,-9.809 -5.282,-1.509 -9.055,-2.264 -12.073,-2.264 -10.564,0 -15.846,7.546 -15.846,23.391 v 36.974 c 0,12.073 1.509,21.128 5.282,26.41 3.773,5.282 10.564,10.564 21.128,15.846 26.409,13.582 58.101,24.901 95.075,33.955 36.974,9.809 76.211,14.337 117.712,14.337 89.793,0 155.44,-20.373 197.696,-61.12 41.501,-40.746 62.629,-102.62 62.629,-185.622 V 216.561 Z" /></g><g
           transform="translate(2166.3828,349.8447)"
           id="g24"
           style="fill:#ffffff"><path
             id="path26"
             style="fill:#ffffff;fill-opacity:1;fill-rule:nonzero;stroke:none"
             d="m 0,0 c -248.252,-183.359 -608.934,-280.698 -919.06,-280.698 -434.629,0 -826.248,160.721 -1122.037,427.838 -23.392,21.128 -2.264,49.801 25.655,33.201 319.935,-185.623 714.573,-298.054 1122.793,-298.054 275.416,0 577.996,57.348 856.43,175.06 C 5.282,76.211 40.747,30.182 0,0" /></g><g
           transform="translate(2269.7588,467.5566)"
           id="g28"
           style="fill:#ffffff"><path
             id="path30"
             style="fill:#ffffff;fill-opacity:1;fill-rule:nonzero;stroke:none"
             d="m 0,0 c -31.692,40.746 -209.77,19.618 -290.508,9.81 -24.146,-3.019 -27.919,18.109 -6.036,33.955 141.857,99.602 375.019,70.928 402.183,37.728 27.164,-33.956 -7.546,-267.116 -140.349,-378.792 -20.374,-17.354 -39.992,-8.3 -30.937,14.337 C -35.465,-208.26 31.691,-39.992 0,0" /></g></g></g></g></svg>
