<?xml version="1.0" encoding="UTF-8" standalone="no"?>
<!-- Created with Inkscape (http://www.inkscape.org/) -->

<svg
   width="111.90624mm"
   height="33.48951mm"
   viewBox="0 0 111.90624 33.48951"
   version="1.1"
   id="svg1"
   xml:space="preserve"
   xmlns="http://www.w3.org/2000/svg"
   xmlns:svg="http://www.w3.org/2000/svg"><defs
     id="defs1" /><g
     id="layer1"
     transform="translate(-53.495534,-218.43862)"><g
       id="g58"
       transform="translate(2.967077,169.50403)"
       style="fill:#ffffff"><g
         id="g56"
         style="display:inline;fill:#ffffff"
         transform="matrix(0.05850508,0,0,0.05850508,46.690421,48.994179)"><path
           id="path52"
           style="display:inline;fill:#ffffff;stroke-width:1.04559"
           d="m 254.03794,355.79093 -83.67368,83.67174 -0.002,-0.002 -25.61665,24.33513 c 67.70035,67.80499 170.20461,107.38285 278.69353,107.60617 91.18802,-0.22583 178.82817,-28.28797 245.02002,-78.45473 -38.83925,25.2842 -85.17011,40.02879 -134.96891,40.02879 -65.84209,-0.23654 -128.88159,-26.6694 -175.20292,-73.46225 z" /><path
           id="path53"
           style="display:inline;fill:#ffffff;stroke-width:1.04559"
           d="M 87.186148,189.35534 C 73.19979,220.08013 65.899366,252.49466 65.601807,285.19175 65.800101,342.61966 87.593133,398.6718 128.148,446.06187 104.87485,406.99281 108.13087,362.38502 184.46086,285.18982 l -69.3951,-69.39899 z m 83.178112,250.10734 -0.002,-0.002 z" /><path
           id="path54"
           style="display:inline;fill:#ffffff;stroke-width:1.04559"
           d="m 423.43921,-1.01855 c -134.03613,0.26702051 -256.64669,60.424717 -317.68665,155.86992 47.84913,-19.62117 100.70243,14.26717 148.28151,59.73926 l 104.2514,-103.72099 c 46.32131,-46.792886 109.36276,-73.225709 175.20484,-73.462254 53.04992,0 102.16498,16.726376 142.47407,45.116111 C 608.92179,29.052492 518.11746,-0.98799813 423.43921,-1.01855 Z" /><path
           id="path55"
           style="display:inline;opacity:1;fill:#ffffff;stroke-width:1.04559"
           d="m 534.55628,136.52546 c -39.50759,0.14131 -77.3345,15.99754 -105.12812,44.07573 L 324.30005,285.19051 429.42816,389.77982 c 27.79329,28.07892 65.62025,43.94274 105.12812,44.08456 82.10812,0 148.66505,-66.56579 148.66505,-148.67387 0,-82.10812 -66.55693,-148.66506 -148.66505,-148.66505 z M 386.00606,242.70469 H 420.931 l 16.21704,58.91485 h 3.83344 v 15.73123 h -37.61011 v -15.73123 h 5.75899 l -1.63407,-7.67572 h -12.9489 l -1.53691,7.67572 h 5.75016 v 15.73123 h -32.80506 v -15.73123 h 3.83344 z m 65.08899,0 h 45.00317 c 7.86762,0 14.06927,1.59799 18.61074,4.79621 4.54146,3.19821 6.81893,7.90146 6.81893,14.106 0,3.07028 -0.57987,5.69524 -1.73124,7.87004 -1.15135,2.17478 -2.55901,3.96313 -4.22208,5.37035 -1.66307,1.40721 -3.41822,2.49173 -5.27319,3.2593 -1.791,0.76758 -3.36464,1.28106 -4.70789,1.53691 v 0.96278 c 1.40722,0.12793 3.13801,0.44223 5.18486,0.95394 2.04687,0.44776 4.00119,1.31756 5.85616,2.59685 1.85496,1.21532 3.41977,2.93727 4.69905,5.17603 1.34325,2.17478 2.01388,5.05648 2.01388,8.63848 0,3.58201 -0.73702,6.62086 -2.2082,9.11547 -1.47118,2.43064 -3.44988,4.40933 -5.94448,5.94448 -2.49461,1.53514 -5.40951,2.65286 -8.73565,3.35647 -3.26218,0.63964 -6.71492,0.96277 -10.36089,0.96277 h -45.00317 v -15.73123 h 5.75899 v -43.17479 h -5.75899 z m 83.52306,0 h 43.07762 c 3.90183,0 7.42096,0.41388 10.55521,1.24542 3.19821,0.76758 5.88073,2.05128 8.05552,3.84227 2.17479,1.79101 3.83919,4.12603 4.99054,7.00442 1.21532,2.8784 1.8284,6.36433 1.8284,10.45805 0,4.15768 -0.61308,7.67682 -1.8284,10.55521 -1.15135,2.81443 -2.81575,5.11626 -4.99054,6.90726 -2.17479,1.791 -4.85731,3.09906 -8.05552,3.9306 -3.13425,0.76758 -6.65338,1.14827 -10.55521,1.14827 h -10.45805 v 13.82335 h 9.21263 v 15.73123 h -41.8322 v -15.73123 h 5.75016 v -43.17479 h -5.75016 z m 77.47259,0 h 58.33188 v 24.84669 h -16.98549 v -9.10663 h -8.72682 v 15.92556 h 14.48581 v 10.93502 h -14.48581 v 16.31421 h 12.56909 v 15.73123 H 612.0907 v -15.73123 h 5.75016 v -43.17479 h -5.75016 z m -128.36725,15.74006 v 15.73124 h 5.17603 c 1.85497,0 3.22943,-0.48028 4.12492,-1.43975 0.95947,-0.95946 1.43975,-2.52427 1.43975,-4.69905 v -3.45363 c 0,-2.17479 -0.48028,-3.74842 -1.43975,-4.70789 -0.89549,-0.95947 -2.26995,-1.43092 -4.12492,-1.43092 z m 83.51423,0 v 15.73124 h 3.25931 c 1.791,0 3.16546,-0.48028 4.12492,-1.43975 0.95947,-0.95946 1.43975,-2.52427 1.43975,-4.69905 v -3.45363 c 0,-2.17479 -0.48028,-3.74842 -1.43975,-4.70789 -0.89549,-0.95947 -2.26995,-1.43092 -4.12492,-1.43092 z m -166.64864,6.23597 -3.93061,19.0877 h 8.82398 l -3.9306,-19.0877 z m 83.13441,20.43029 v 16.50853 h 5.84732 c 1.85497,0 3.22943,-0.48029 4.12493,-1.43975 0.95946,-0.95947 1.43975,-2.53311 1.43975,-4.70789 v -4.21325 c 0,-2.17479 -0.48029,-3.74842 -1.43975,-4.70789 -0.8955,-0.95947 -2.26996,-1.43975 -4.12493,-1.43975 z" /></g><g
         id="g57"
         transform="translate(-0.1789308,19.70105)"
         style="fill:#ffffff"><path
           d="m 93.922407,47.102554 v -1.058557 h 0.152585 q 0.228877,0 0.295633,-0.209804 l 2.012212,-5.502589 h 1.306507 l 2.002675,5.502589 q 0.06676,0.209804 0.295633,0.209804 h 0.152588 v 1.058557 h -0.743854 q -0.352852,0 -0.52451,-0.114438 -0.162121,-0.114439 -0.27656,-0.438682 l -0.419608,-1.182532 h -2.288772 l -0.419608,1.182532 q -0.114439,0.324243 -0.27656,0.438682 -0.162121,0.114438 -0.514974,0.114438 z m 2.250626,-2.765599 h 1.716579 l -0.58173,-1.697506 -0.267023,-1.010874 h -0.01907 q -0.143049,0.638949 -0.267024,1.010874 z m 4.948797,2.117114 v -4.882713 q 0,-0.209805 -0.2098,-0.209805 h -0.38146 v -1.029947 h 1.15392 q 0.64848,0 0.64848,0.648485 v 4.89225 q 0,0.209805 0.20981,0.209805 h 0.37192 v 1.02041 h -1.14438 q -0.34332,0 -0.4959,-0.152584 -0.15259,-0.152585 -0.15259,-0.495901 z m 3.01289,-5.006689 v -1.115776 h 1.04902 v 1.115776 z m -0.0572,5.006689 v -2.975404 q 0,-0.209804 -0.20981,-0.209804 h -0.38146 v -1.029947 h 1.15393 q 0.33377,0 0.48636,0.162121 0.15258,0.152585 0.15258,0.486364 v 2.98494 q 0,0.209805 0.20981,0.209805 h 0.38146 v 1.02041 h -1.15392 q -0.33378,0 -0.48637,-0.152584 -0.15258,-0.152585 -0.15258,-0.495901 z m 2.45022,-0.753387 q 0,-0.362389 0.15259,-0.648486 0.15258,-0.286096 0.4196,-0.457754 0.27656,-0.171658 0.5722,-0.286097 0.29563,-0.123975 0.64848,-0.171658 0.36239,-0.04768 0.60081,-0.06676 0.24795,-0.01907 0.4959,-0.01907 h 0.15258 v -0.03815 q 0,-0.514973 -0.21934,-0.734314 -0.2098,-0.219341 -0.67709,-0.219341 -0.22888,0 -0.43869,0.07629 -0.2098,0.06676 -0.2098,0.24795 v 0.257487 h -1.12531 v -0.514974 q 0,-0.314706 0.19073,-0.534047 0.20027,-0.21934 0.51497,-0.305169 0.32424,-0.09537 0.57219,-0.123975 0.25749,-0.03815 0.50544,-0.03815 2.09804,0 2.09804,1.93592 v 1.811944 q 0,0.209805 0.20981,0.209805 h 0.38146 v 1.02041 h -1.08717 q -0.3147,0 -0.46729,-0.143048 -0.15258,-0.152585 -0.15258,-0.390998 l 0.01,-0.209805 h -0.0191 q -0.0191,0.03815 -0.0477,0.09537 -0.0286,0.05722 -0.15259,0.209804 -0.12397,0.143048 -0.27656,0.257487 -0.15258,0.114438 -0.41961,0.200267 -0.26702,0.09537 -0.57219,0.09537 -0.68663,0 -1.17299,-0.410072 -0.48637,-0.410071 -0.48637,-1.106239 z m 1.22068,-0.05722 q 0,0.257487 0.19073,0.448218 0.19073,0.181195 0.54358,0.181195 0.4673,0 0.782,-0.400536 0.32424,-0.410071 0.32424,-0.877362 v -0.114439 h -0.2098 q -1.63075,0 -1.63075,0.762924 z m 4.71038,1.459092 v -3.623889 q 0,-0.209804 -0.2098,-0.209804 h -0.38146 v -1.029947 h 1.11577 q 0.63895,0 0.63895,0.543583 v 0.143049 l -0.0191,0.209804 h 0.0191 q 0.20027,-0.400535 0.62941,-0.705705 0.42915,-0.30517 1.08717,-0.30517 1.69751,0 1.69751,1.850091 v 1.897773 q 0,0.209805 0.2098,0.209805 h 0.38146 v 1.02041 h -1.15392 q -0.34332,0 -0.4959,-0.152584 -0.15258,-0.152585 -0.15258,-0.495901 v -2.231553 q 0,-0.486364 -0.17166,-0.734314 -0.16212,-0.257487 -0.59127,-0.257487 -0.47683,0 -0.82968,0.27656 -0.34331,0.267024 -0.47683,0.715241 -0.0954,0.286097 -0.0954,0.648486 v 2.231552 z m 5.75941,-2.43182 q 0,-1.068093 0.72478,-1.802408 0.72477,-0.743851 1.93592,-0.743851 0.37192,0 0.74385,0.09537 0.37192,0.08583 0.69617,0.352852 0.32424,0.257487 0.32424,0.648486 v 0.572193 h -1.0681 v -0.267024 q 0,-0.181194 -0.21934,-0.27656 -0.21934,-0.104902 -0.47682,-0.104902 -0.62942,0 -1.03949,0.429145 -0.40053,0.429145 -0.40053,1.087167 0,0.705704 0.43868,1.106239 0.44822,0.390999 1.07763,0.390999 0.37192,0 0.72478,-0.162121 0.36239,-0.171658 0.54358,-0.33378 l 0.17166,-0.162121 0.50543,0.839216 q -0.0286,0.03815 -0.0858,0.09537 -0.0572,0.05722 -0.24795,0.209804 -0.19074,0.143048 -0.41008,0.257487 -0.2098,0.114438 -0.56265,0.209804 -0.34332,0.09537 -0.70571,0.104902 l -0.0667,0.30517 q 0.30517,0.03815 0.4959,0.21934 0.19073,0.181195 0.19073,0.505437 0,0.438682 -0.29563,0.638949 -0.29564,0.200268 -0.72478,0.200268 -0.15259,0 -0.30517,-0.01907 -0.14305,-0.01907 -0.20981,-0.03815 l -0.0763,-0.0095 v -0.667559 q 0.20027,0.07629 0.41961,0.07629 0.41007,0 0.41007,-0.267024 0,-0.257487 -0.45775,-0.257487 l -0.20027,0.01907 0.2098,-0.762924 q -0.94411,-0.171658 -1.50677,-0.85829 -0.55312,-0.686631 -0.55312,-1.63075 z m 5.25397,1.029948 q 0,-0.362389 0.15258,-0.648486 0.15259,-0.286096 0.41961,-0.457754 0.27656,-0.171658 0.5722,-0.286097 0.29563,-0.123975 0.64848,-0.171658 0.36239,-0.04768 0.6008,-0.06676 0.24795,-0.01907 0.4959,-0.01907 h 0.15259 v -0.03815 q 0,-0.514973 -0.21934,-0.734314 -0.20981,-0.219341 -0.6771,-0.219341 -0.22887,0 -0.43868,0.07629 -0.2098,0.06676 -0.2098,0.24795 v 0.257487 h -1.12531 v -0.514974 q 0,-0.314706 0.19073,-0.534047 0.20026,-0.21934 0.51497,-0.305169 0.32424,-0.09537 0.57219,-0.123975 0.25749,-0.03815 0.50544,-0.03815 2.09804,0 2.09804,1.93592 v 1.811944 q 0,0.209805 0.2098,0.209805 h 0.38147 v 1.02041 h -1.08717 q -0.31471,0 -0.46729,-0.143048 -0.15259,-0.152585 -0.15259,-0.390998 l 0.01,-0.209805 h -0.0191 q -0.0191,0.03815 -0.0477,0.09537 -0.0286,0.05722 -0.15259,0.209804 -0.12397,0.143048 -0.27656,0.257487 -0.15258,0.114438 -0.41961,0.200267 -0.26702,0.09537 -0.57219,0.09537 -0.68663,0 -1.173,-0.410072 -0.48636,-0.410071 -0.48636,-1.106239 z m 1.22068,-0.05722 q 0,0.257487 0.19073,0.448218 0.19073,0.181195 0.54358,0.181195 0.46729,0 0.782,-0.400536 0.32424,-0.410071 0.32424,-0.877362 v -0.114439 h -0.2098 q -1.63075,0 -1.63075,0.762924 z m 7.49438,0.810607 v -5.063908 h -0.61987 v -1.058557 h 2.92772 q 0.93458,0 1.51631,0.467291 0.58173,0.457754 0.58173,1.277898 0,0.52451 -0.23842,0.896435 -0.23841,0.371926 -0.58173,0.55312 v 0.01907 q 0.52451,0.152585 0.80107,0.600803 0.2861,0.448218 0.2861,0.991801 0,0.963192 -0.66756,1.468629 -0.65802,0.4959 -1.66889,0.4959 h -1.68797 q -0.33378,0 -0.4959,-0.152584 -0.15259,-0.152585 -0.15259,-0.495901 z m 1.24929,-3.356865 h 1.06809 q 0.38147,0 0.60081,-0.238414 0.21934,-0.247951 0.21934,-0.629413 0,-0.381461 -0.21934,-0.610339 -0.21934,-0.228877 -0.61988,-0.228877 h -1.04902 z m 0,2.736989 q 0,0.209804 0.2098,0.209804 h 0.97273 q 0.44822,0 0.69617,-0.267023 0.25749,-0.27656 0.25749,-0.715241 0,-0.429145 -0.25749,-0.696168 -0.25749,-0.27656 -0.69617,-0.27656 h -1.18253 z m 4.76761,0.619876 v -2.975404 q 0,-0.209804 -0.20981,-0.209804 h -0.38146 v -1.029947 h 1.15392 q 0.64849,0 0.64849,0.648485 v 2.98494 q 0,0.209805 0.2098,0.209805 h 0.37193 v 1.02041 h -1.14439 q -0.34332,0 -0.4959,-0.152584 -0.15258,-0.152585 -0.15258,-0.495901 z m 0.0668,-4.815958 0.72478,-1.306507 h 1.15392 l -0.9918,1.306507 z m 2.84122,5.464443 v -5.531198 q 0,-0.209805 -0.2098,-0.209805 h -0.38146 v -1.029947 h 1.15392 q 0.64849,0 0.64849,0.648485 v 1.41141 l -0.0191,0.410071 h 0.0191 q 0.0191,-0.02861 0.0477,-0.06676 0.0382,-0.04768 0.16212,-0.162122 0.13351,-0.123975 0.2861,-0.209804 0.16212,-0.09537 0.41961,-0.162121 0.25748,-0.07629 0.54358,-0.07629 0.98226,0 1.56399,0.705705 0.59127,0.705705 0.59127,1.840554 0,1.144386 -0.62941,1.850091 -0.61988,0.696168 -1.60214,0.696168 -0.44822,0 -0.81061,-0.171658 -0.36239,-0.171658 -0.4959,-0.343316 l -0.14305,-0.171658 h -0.0191 q 0.0191,0.133512 0.0191,0.324243 v 0.24795 z m 1.173,-2.40321 q 0,0.610339 0.31471,1.058557 0.32424,0.438681 0.89643,0.438681 0.51498,0 0.86783,-0.400535 0.35285,-0.410072 0.35285,-1.10624 0,-0.686631 -0.33378,-1.106239 -0.33378,-0.419609 -0.87736,-0.419609 -0.51497,0 -0.86783,0.390999 -0.35285,0.381462 -0.35285,1.144386 z m 4.76761,1.754725 v -4.882713 q 0,-0.209805 -0.2098,-0.209805 h -0.38146 v -1.029947 h 1.15392 q 0.64849,0 0.64849,0.648485 v 4.89225 q 0,0.209805 0.2098,0.209805 h 0.37192 v 1.02041 h -1.14438 q -0.34332,0 -0.4959,-0.152584 -0.15259,-0.152585 -0.15259,-0.495901 z m 3.01289,-5.006689 v -1.115776 h 1.04902 v 1.115776 z m -0.0572,5.006689 v -2.975404 q 0,-0.209804 -0.20981,-0.209804 h -0.38146 v -1.029947 h 1.15392 q 0.33378,0 0.48637,0.162121 0.15258,0.152585 0.15258,0.486364 v 2.98494 q 0,0.209805 0.20981,0.209805 h 0.38146 v 1.02041 h -1.15392 q -0.33378,0 -0.48637,-0.152584 -0.15258,-0.152585 -0.15258,-0.495901 z m 2.44069,-1.783335 q 0,-1.068093 0.72477,-1.802408 0.72478,-0.743851 1.93592,-0.743851 0.37193,0 0.74385,0.09537 0.37193,0.08583 0.69617,0.352852 0.32425,0.257487 0.32425,0.648486 v 0.572193 h -1.0681 v -0.267024 q 0,-0.181194 -0.21934,-0.27656 -0.21934,-0.104902 -0.47683,-0.104902 -0.62941,0 -1.03948,0.429145 -0.40054,0.429145 -0.40054,1.087167 0,0.705704 0.43869,1.106239 0.44821,0.390999 1.07763,0.390999 0.37192,0 0.72477,-0.162121 0.36239,-0.171658 0.54359,-0.33378 l 0.17165,-0.162121 0.50544,0.839216 q -0.0286,0.03815 -0.0858,0.09537 -0.0572,0.05722 -0.25748,0.209804 -0.19073,0.152585 -0.41008,0.267023 -0.21934,0.114439 -0.57219,0.209804 -0.35285,0.09537 -0.72478,0.09537 -1.17299,0 -1.90731,-0.724778 -0.72477,-0.734314 -0.72477,-1.821481 z m 5.25397,1.029948 q 0,-0.362389 0.15258,-0.648486 0.15259,-0.286096 0.41961,-0.457754 0.27656,-0.171658 0.57219,-0.286097 0.29564,-0.123975 0.64849,-0.171658 0.36239,-0.04768 0.6008,-0.06676 0.24795,-0.01907 0.4959,-0.01907 h 0.15259 v -0.03815 q 0,-0.514973 -0.21934,-0.734314 -0.20981,-0.219341 -0.6771,-0.219341 -0.22888,0 -0.43868,0.07629 -0.2098,0.06676 -0.2098,0.24795 v 0.257487 h -1.12532 v -0.514974 q 0,-0.314706 0.19073,-0.534047 0.20027,-0.21934 0.51498,-0.305169 0.32424,-0.09537 0.57219,-0.123975 0.25749,-0.03815 0.50544,-0.03815 2.09804,0 2.09804,1.93592 v 1.811944 q 0,0.209805 0.2098,0.209805 h 0.38146 v 1.02041 h -1.08716 q -0.31471,0 -0.46729,-0.143048 -0.15259,-0.152585 -0.15259,-0.390998 l 0.01,-0.209805 h -0.0191 q -0.0191,0.03815 -0.0477,0.09537 -0.0286,0.05722 -0.15258,0.209804 -0.12398,0.143048 -0.27656,0.257487 -0.15259,0.114438 -0.41961,0.200267 -0.26702,0.09537 -0.57219,0.09537 -0.68663,0 -1.173,-0.410072 -0.48636,-0.410071 -0.48636,-1.106239 z m 1.22068,-0.05722 q 0,0.257487 0.19073,0.448218 0.19073,0.181195 0.54358,0.181195 0.46729,0 0.782,-0.400536 0.32424,-0.410071 0.32424,-0.877362 v -0.114439 h -0.2098 q -1.63075,0 -1.63075,0.762924 z"
           id="text57"
           style="font-size:9.53655px;line-height:0;font-family:Museo;-inkscape-font-specification:Museo;letter-spacing:0.113771px;fill-opacity:0.972549;stroke-width:4.89292"
           aria-label="Aliança Bíblica" /><path
           d="m 134.80641,48.883659 q 0,0.473872 -0.29044,0.76431 -0.28534,0.285342 -0.74902,0.285342 h -1.16685 v 1.574479 h -0.47387 v -3.714547 h 1.53371 q 0.55031,0 0.84584,0.285343 0.30063,0.280247 0.30063,0.805073 z m -2.20631,0.631829 h 0.98851 q 0.34139,0 0.52992,-0.173243 0.19363,-0.173244 0.19363,-0.478968 0,-0.305724 -0.19363,-0.478968 -0.18853,-0.173243 -0.52992,-0.173243 h -0.98851 z m 2.91372,0.112099 q 0.0306,-0.866218 1.07003,-0.866218 0.49426,0 0.74903,0.18853 0.25477,0.183434 0.25477,0.540112 v 1.569383 q 0,0.208912 0.22929,0.208912 0.0459,0 0.0917,-0.01019 v 0.32101 q -0.17834,0.04586 -0.29044,0.04586 -0.20382,0 -0.31082,-0.09681 -0.10191,-0.09172 -0.12738,-0.295533 -0.42802,0.392346 -0.90698,0.392346 -0.40254,0 -0.64203,-0.214007 -0.23438,-0.214007 -0.23438,-0.57578 0,-0.117194 0.0204,-0.214007 0.0255,-0.09681 0.051,-0.168148 0.0306,-0.07643 0.10191,-0.137576 0.0713,-0.06624 0.11719,-0.107003 0.051,-0.04076 0.16306,-0.07643 0.11719,-0.04076 0.17834,-0.05605 0.0611,-0.02038 0.214,-0.04586 0.15286,-0.02548 0.2242,-0.03567 0.0713,-0.01019 0.25477,-0.03567 0.24967,-0.03057 0.34649,-0.09681 0.0968,-0.06624 0.0968,-0.19872 v -0.112099 q 0,-0.193625 -0.15796,-0.295533 -0.15286,-0.101908 -0.4382,-0.101908 -0.29553,0 -0.4484,0.117194 -0.15286,0.112099 -0.17834,0.356678 z m 0.85093,1.625433 q 0.35158,0 0.57578,-0.183435 0.2242,-0.18853 0.2242,-0.402536 v -0.478968 q -0.12738,0.06115 -0.38725,0.101908 -0.25477,0.04076 -0.4433,0.07134 -0.18853,0.03057 -0.34139,0.147766 -0.15286,0.112099 -0.15286,0.315915 0,0.203816 0.13757,0.315915 0.13758,0.112099 0.38725,0.112099 z m 2.45004,-0.540113 q 0.0306,0.239484 0.16305,0.382155 0.13757,0.137576 0.48916,0.137576 0.28024,0 0.44839,-0.112099 0.17325,-0.117194 0.17325,-0.305724 0,-0.147766 -0.0968,-0.234388 -0.0968,-0.08662 -0.31591,-0.137576 l -0.39744,-0.09681 q -0.47388,-0.112098 -0.66241,-0.280247 -0.18343,-0.173243 -0.18343,-0.489158 0,-0.371964 0.28025,-0.591066 0.28024,-0.224198 0.74393,-0.224198 0.46368,0 0.71335,0.214007 0.24968,0.214007 0.25477,0.606352 h -0.44839 q -0.0153,-0.428013 -0.53502,-0.428013 -0.25987,0 -0.41273,0.112099 -0.15286,0.107003 -0.15286,0.290437 0,0.142672 0.11719,0.234389 0.1172,0.08662 0.37706,0.147766 l 0.40764,0.09681 q 0.39744,0.09681 0.57578,0.275152 0.17834,0.173243 0.17834,0.468776 0,0.387251 -0.30063,0.616544 -0.29554,0.229293 -0.79998,0.229293 -1.03437,0 -1.06494,-0.912077 z m 2.69461,0 q 0.0306,0.239484 0.16305,0.382155 0.13758,0.137576 0.48916,0.137576 0.28025,0 0.4484,-0.112099 0.17324,-0.117194 0.17324,-0.305724 0,-0.147766 -0.0968,-0.234388 -0.0968,-0.08662 -0.31592,-0.137576 l -0.39744,-0.09681 q -0.47387,-0.112098 -0.6624,-0.280247 -0.18343,-0.173243 -0.18343,-0.489158 0,-0.371964 0.28024,-0.591066 0.28025,-0.224198 0.74393,-0.224198 0.46368,0 0.71336,0.214007 0.24967,0.214007 0.25477,0.606352 h -0.4484 q -0.0153,-0.428013 -0.53501,-0.428013 -0.25987,0 -0.41273,0.112099 -0.15286,0.107003 -0.15286,0.290437 0,0.142672 0.11719,0.234389 0.11719,0.08662 0.37706,0.147766 l 0.40763,0.09681 q 0.39744,0.09681 0.57578,0.275152 0.17834,0.173243 0.17834,0.468776 0,0.387251 -0.30063,0.616544 -0.29553,0.229293 -0.79997,0.229293 -1.03437,0 -1.06494,-0.912077 z m 3.42836,-1.951538 q 0.57578,0 0.89169,0.382155 0.32101,0.37706 0.32101,1.070034 0,0.657307 -0.3261,1.034366 -0.32101,0.37706 -0.88151,0.37706 -0.57068,0 -0.89169,-0.37706 -0.31592,-0.382155 -0.31592,-1.054748 0,-0.672592 0.32101,-1.049652 0.32101,-0.382155 0.88151,-0.382155 z m 0.005,0.392346 q -0.35668,0 -0.56049,0.280247 -0.20382,0.275151 -0.20382,0.759214 0,0.484063 0.20382,0.76431 0.20381,0.275152 0.56049,0.275152 0.35158,0 0.5554,-0.275152 0.20891,-0.280247 0.20891,-0.749023 0,-0.494254 -0.20381,-0.774501 -0.19873,-0.280247 -0.5605,-0.280247 z m 3.881,0.662402 v 1.691673 h -0.47388 v -3.714547 h 2.49166 v 0.417823 h -2.01778 v 1.187228 h 1.7732 v 0.417823 z m 4.78373,1.691673 h -0.38215 v -0.371965 q -0.18853,0.264961 -0.39235,0.37706 -0.20381,0.112099 -0.49935,0.112099 -0.38725,0 -0.62164,-0.198721 -0.22929,-0.19872 -0.22929,-0.529921 V 48.8378 h 0.42292 v 1.890393 q 0,0.239484 0.14777,0.382155 0.14776,0.142672 0.40253,0.142672 0.3312,0 0.52992,-0.24458 0.19872,-0.249674 0.19872,-0.657306 V 48.8378 h 0.42292 z m 0.79404,-2.66999 h 0.39234 v 0.448395 q 0.17834,-0.280247 0.38216,-0.402536 0.20891,-0.12229 0.50444,-0.12229 0.38725,0 0.61655,0.198721 0.22929,0.19872 0.22929,0.529921 v 2.017779 h -0.42292 v -1.849631 q 0,-0.239483 -0.14777,-0.382155 -0.14776,-0.142671 -0.40253,-0.142671 -0.32611,0 -0.52483,0.249675 -0.19872,0.244579 -0.19872,0.652211 v 1.472571 h -0.42801 z m 5.15569,-1.044557 v 3.714547 h -0.37706 v -0.351583 q -0.17324,0.249675 -0.37706,0.356678 -0.19872,0.112099 -0.47387,0.112099 -0.54011,0 -0.85093,-0.387251 -0.31082,-0.392345 -0.31082,-1.070034 0,-0.636925 0.31082,-1.01908 0.31592,-0.38725 0.83565,-0.38725 0.5503,0 0.82036,0.412727 v -1.380853 z m -1.17194,1.365567 q -0.34649,0 -0.56049,0.285343 -0.21401,0.285342 -0.21401,0.749023 0,0.468777 0.21401,0.75412 0.214,0.280247 0.56559,0.280247 0.33629,0 0.54011,-0.280247 0.20382,-0.280247 0.20382,-0.743929 0,-0.478967 -0.20382,-0.759214 -0.20382,-0.285343 -0.54521,-0.285343 z m 3.01563,-0.397441 q 0.57578,0 0.8917,0.382155 0.32101,0.37706 0.32101,1.070034 0,0.657307 -0.32611,1.034366 -0.32101,0.37706 -0.8815,0.37706 -0.57069,0 -0.8917,-0.37706 -0.31591,-0.382155 -0.31591,-1.054748 0,-0.672592 0.32101,-1.049652 0.32101,-0.382155 0.8815,-0.382155 z m 0.005,0.392346 q -0.35668,0 -0.5605,0.280247 -0.20381,0.275151 -0.20381,0.759214 0,0.484063 0.20381,0.76431 0.20382,0.275152 0.5605,0.275152 0.35158,0 0.55539,-0.275152 0.20892,-0.280247 0.20892,-0.749023 0,-0.494254 -0.20382,-0.774501 -0.19872,-0.280247 -0.56049,-0.280247 z"
           id="text56"
           style="font-size:5.0954px;line-height:0;font-family:FreeSans;-inkscape-font-specification:FreeSans;letter-spacing:0.182584px;stroke-width:2.61429"
           aria-label="Passo Fundo" /></g></g></g></svg>
