<?xml version="1.0" encoding="UTF-8" standalone="no"?>
<svg
   width="20px"
   height="20px"
   viewBox="0 0 20 20"
   version="1.1"
   id="svg1"
   sodipodi:docname="javascript.svg"
   inkscape:version="1.3.2 (091e20ef0f, 2023-11-25)"
   xmlns:inkscape="http://www.inkscape.org/namespaces/inkscape"
   xmlns:sodipodi="http://sodipodi.sourceforge.net/DTD/sodipodi-0.dtd"
   xmlns="http://www.w3.org/2000/svg"
   xmlns:svg="http://www.w3.org/2000/svg">
  <sodipodi:namedview
     id="namedview1"
     pagecolor="#ffffff"
     bordercolor="#000000"
     borderopacity="0.25"
     inkscape:showpageshadow="2"
     inkscape:pageopacity="0.0"
     inkscape:pagecheckerboard="0"
     inkscape:deskcolor="#d1d1d1"
     inkscape:zoom="42.4"
     inkscape:cx="9.9882075"
     inkscape:cy="10"
     inkscape:window-width="2560"
     inkscape:window-height="1052"
     inkscape:window-x="0"
     inkscape:window-y="0"
     inkscape:window-maximized="1"
     inkscape:current-layer="Page-1" />
  <!-- Generator: Sketch 3.8.1 (29687) - http://www.bohemiancoding.com/sketch -->
  <title
     id="title1">javascript [#155]</title>
  <desc
     id="desc1">Created with Sketch.</desc>
  <defs
     id="defs1" />
  <g
     id="Page-1"
     stroke="none"
     stroke-width="1"
     fill="none"
     fill-rule="evenodd">
    <path
       d="m 13.317434,15.250113 c -1.08651,0 -1.788849,-0.518037 -2.131303,-1.195471 v 0 l 0.952642,-0.551661 c 0.250926,0.409699 0.576567,0.710434 1.153755,0.710434 0.484415,0 0.793868,-0.242207 0.793868,-0.576566 0,-0.503094 -0.671208,-0.699849 -1.145038,-0.90283 -0.844301,-0.359264 -1.404678,-0.810679 -1.404678,-1.763943 0,-0.877303 0.668716,-1.5460194 1.714132,-1.5460194 0.743433,0 1.278904,0.2590189 1.663075,0.9358304 l -0.910925,0.585283 c -0.20049,-0.359265 -0.417792,-0.501227 -0.75215,-0.501227 -0.343077,0 -0.560378,0.217302 -0.560378,0.501227 0,0.35117 0.217301,0.493131 0.719151,0.710434 1.051642,0.450792 1.847377,0.805076 1.847377,1.964434 0,1.053509 -0.82749,1.630075 -1.939528,1.630075 z M 10.622642,13.48617 c 0,1.212283 -0.7465477,1.852981 -1.7832458,1.852981 -0.9364528,0 -1.4974528,-0.35802 -1.7732831,-0.98066 h -0.00934 -0.00435 -0.00249 l 0.952019,-0.665604 c 0.1836792,0.325641 0.3493019,0.556641 0.750283,0.556641 0.3847924,0 0.625132,-0.194886 0.625132,-0.779547 V 9.3773585 H 10.622642 Z M 3.7735849,16.226415 H 16.226415 V 3.7735849 H 3.7735849 Z"
       id="javascript-[#155]"
       style="fill:#ffffff;stroke-width:0.622642" />
  </g>
</svg>
