<?xml version="1.0" encoding="UTF-8" standalone="no"?>
<!-- Created with Inkscape (http://www.inkscape.org/) -->

<svg
   xmlns:dc="http://purl.org/dc/elements/1.1/"
   xmlns:cc="http://creativecommons.org/ns#"
   xmlns:rdf="http://www.w3.org/1999/02/22-rdf-syntax-ns#"
   xmlns:svg="http://www.w3.org/2000/svg"
   xmlns="http://www.w3.org/2000/svg"
   xmlns:sodipodi="http://sodipodi.sourceforge.net/DTD/sodipodi-0.dtd"
   xmlns:inkscape="http://www.inkscape.org/namespaces/inkscape"
   width="137.68333mm"
   height="92.326195mm"
   viewBox="0 0 137.68333 92.326195"
   version="1.1"
   id="svg1320"
   inkscape:version="0.92.4 (5da689c313, 2019-01-14)"
   sodipodi:docname="logo_livtech_v.svg">
  <defs
     id="defs1314" />
  <sodipodi:namedview
     id="base"
     pagecolor="#ffffff"
     bordercolor="#666666"
     borderopacity="1.0"
     inkscape:pageopacity="0.0"
     inkscape:pageshadow="2"
     inkscape:zoom="0.98994949"
     inkscape:cx="59.04105"
     inkscape:cy="217.43484"
     inkscape:document-units="mm"
     inkscape:current-layer="layer1"
     showgrid="false"
     fit-margin-top="0"
     fit-margin-left="0"
     fit-margin-right="0"
     fit-margin-bottom="0"
     inkscape:window-width="1920"
     inkscape:window-height="1057"
     inkscape:window-x="-8"
     inkscape:window-y="-8"
     inkscape:window-maximized="1" />
  <metadata
     id="metadata1317">
    <rdf:RDF>
      <cc:Work
         rdf:about="">
        <dc:format>image/svg+xml</dc:format>
        <dc:type
           rdf:resource="http://purl.org/dc/dcmitype/StillImage" />
        <dc:title />
      </cc:Work>
    </rdf:RDF>
  </metadata>
  <g
     inkscape:label="Camada 1"
     inkscape:groupmode="layer"
     id="layer1"
     transform="translate(-6.753576,-96.622615)">
    <rect
       style="opacity:1;fill:none;fill-opacity:1;fill-rule:evenodd;stroke:none;stroke-width:0.1;stroke-linecap:round;stroke-linejoin:round;stroke-miterlimit:4;stroke-dasharray:none;stroke-dashoffset:0;stroke-opacity:1"
       id="rect1901"
       width="137.58333"
       height="92.226196"
       x="6.803576"
       y="96.672615" />
    <g
       id="g1592"
       style="fill:#f1f1f1">
      <path
         inkscape:connector-curvature="0"
         inkscape:export-ydpi="300"
         inkscape:export-xdpi="300"
         inkscape:export-filename="C:\Users\luis\path826-43.png"
         id="path895-6-8-3-1-8"
         d="m 18.16886,157.46195 v -13.15534 h 1.64442 1.64441 v 13.15534 13.15534 h -1.64441 -1.64442 z"
         style="fill:#f1f1f1;fill-opacity:1;stroke-width:0.2529873" />
      <path
         inkscape:connector-curvature="0"
         inkscape:export-ydpi="300"
         inkscape:export-xdpi="300"
         inkscape:export-filename="C:\Users\luis\path826-43.png"
         id="path893-6-6-2-1-1"
         d="m 26.01146,161.50974 v -9.10754 h 1.64442 1.64443 v 9.10754 9.10755 h -1.64443 -1.64442 z"
         style="fill:#f1f1f1;fill-opacity:1;stroke-width:0.2529873" />
      <path
         inkscape:connector-curvature="0"
         inkscape:export-ydpi="300"
         inkscape:export-xdpi="300"
         inkscape:export-filename="C:\Users\luis\path826-43.png"
         id="path891-7-7-9-0-0"
         d="m 35.40005,161.69948 c -2.10343,-4.90479 -3.82407,-9.00318 -3.82364,-9.10754 5.1e-4,-0.10435 0.77817,-0.18974 1.72831,-0.18974 h 1.72752 l 2.99166,7.0204 c 1.64541,3.86121 3.06074,7.1013 3.14517,7.20019 0.0844,0.0989 1.53565,-3.03184 3.22491,-6.95716 l 3.07138,-7.13694 1.82749,-0.075 c 1.51258,-0.0621 1.80322,-0.0118 1.6867,0.29194 -0.0774,0.2018 -1.82622,4.30547 -3.88616,9.11926 l -3.74535,8.75236 h -2.06179 -2.06178 z"
         style="fill:#f1f1f1;fill-opacity:1;stroke-width:0.2529873" />
      <path
         inkscape:connector-curvature="0"
         inkscape:export-ydpi="300"
         inkscape:export-xdpi="300"
         inkscape:export-filename="C:\Users\luis\path826-43.png"
         id="path887-4-8-2-0-3"
         d="m 60.29298,134.86792 c -2.67477,-1.16461 -3.49946,-4.97521 -1.53869,-7.10973 1.95177,-2.1247 4.82872,-2.09112 6.85711,0.0801 1.10822,1.18623 1.24367,3.8878 0.26753,5.33643 -1.27416,1.89089 -3.54858,2.58033 -5.58595,1.69326 z"
         style="fill:#f1f1f1;fill-opacity:1;stroke-width:0.30352837" />
      <path
         inkscape:connector-curvature="0"
         inkscape:export-ydpi="300"
         inkscape:export-xdpi="300"
         inkscape:export-filename="C:\Users\luis\path826-43.png"
         id="path883-6-0-9-7-6"
         d="m 84.29745,121.21498 c -1.22244,-0.53959 -1.91118,-1.3629 -3.01724,-3.60675 -1.28236,-2.60153 -2.11365,-3.03478 -5.89398,-3.0718 -2.55133,-0.025 -3.05341,-0.11926 -3.91743,-0.73553 -1.28167,-0.91414 -1.89277,-2.12744 -1.89135,-3.7551 0.002,-3.15254 3.04752,-5.27711 5.97379,-4.16837 1.32151,0.5007 2.19045,1.46849 3.31327,3.69013 1.35266,2.67647 2.06484,3.05023 5.88678,3.08944 2.50695,0.0257 3.01482,0.12222 3.87601,0.73646 4.35393,3.10546 0.55062,9.97582 -4.32985,7.82152 z"
         style="fill:#f1f1f1;fill-opacity:1;stroke-width:0.30352837" />
      <path
         inkscape:connector-curvature="0"
         inkscape:export-ydpi="300"
         inkscape:export-xdpi="300"
         inkscape:export-filename="C:\Users\luis\path826-43.png"
         id="path826-4-1-6-6-2-4"
         d="m 25.96616,147.58916 c -0.61945,-0.61945 -0.73253,-0.89673 -0.59329,-1.45467 0.36957,-1.48092 1.93676,-2.20419 3.32749,-1.53568 2.22894,1.07144 1.36961,3.75568 -1.20235,3.75568 -0.51579,0 -1.01686,-0.25034 -1.53185,-0.76533 z"
         style="fill:#f1f1f1;fill-opacity:1;stroke-width:0.2529873" />
    </g>
    <g
       id="g1623"
       style="fill:#f1f1f1;fill-opacity:1">
      <path
         inkscape:connector-curvature="0"
         id="path932-1-7-7-7"
         d="m 129.70533,153.22872 c -1.33247,-0.35821 -2.19943,-1.65402 -1.99339,-2.97939 0.17997,-1.15765 1.0938,-2.07147 2.25145,-2.25145 1.57437,-0.24476 3.05823,1.03325 3.05823,2.63399 0,1.71303 -1.68777,3.03466 -3.31629,2.59685 z m 1.2902,-0.56715 c 0.6959,-0.23443 1.14561,-0.68689 1.38556,-1.39404 0.15467,-0.45578 0.11762,-1.04746 -0.0939,-1.49943 -0.62751,-1.34096 -2.33712,-1.67596 -3.40395,-0.667 -0.84452,0.79872 -0.87801,2.13707 -0.0748,2.98642 0.26521,0.28042 0.70045,0.54416 1.02296,0.61987 0.34692,0.0814 0.84439,0.0618 1.16405,-0.0459 z m -1.8388,-2.07925 v -1.38739 h 0.74988 c 0.41933,0 0.83325,0.0249 0.93899,0.0567 0.29584,0.0886 0.45408,0.28773 0.48033,0.60433 0.0279,0.33678 -0.08,0.58062 -0.31225,0.70573 l -0.16938,0.0912 0.16723,0.13784 c 0.1368,0.11275 0.67224,1.02874 0.67224,1.15 0,0.016 -0.16701,0.029 -0.37112,0.029 h -0.37113 l -0.22206,-0.44215 c -0.24764,-0.49308 -0.35892,-0.59839 -0.6323,-0.59839 h -0.18719 v 0.52027 0.52027 h -0.37161 -0.37163 z m 1.39562,-0.29516 c 0.12515,-0.15454 0.11375,-0.33062 -0.0308,-0.47512 -0.097,-0.097 -0.17225,-0.12162 -0.37161,-0.12162 h -0.25001 v 0.37776 0.37776 l 0.28075,-0.0233 c 0.21431,-0.0178 0.30226,-0.0498 0.37162,-0.13549 z"
         style="fill:#f1f1f1;fill-opacity:1;stroke-width:0.04954977" />
      <path
         inkscape:connector-curvature="0"
         inkscape:export-ydpi="300"
         inkscape:export-xdpi="300"
         inkscape:export-filename="C:\Users\luis\path826-43.png"
         id="path905-2-0-2-1-9"
         d="m 72.96655,142.27075 c -2.10161,-0.47214 -3.69076,-2.99769 -3.27631,-5.20686 0.10588,-0.56418 0.72707,-1.73732 1.38052,-2.60698 1.96172,-2.6108 1.97455,-3.98605 0.0649,-6.95864 -0.62187,-0.96804 -1.31752,-2.23811 -1.54589,-2.82241 -0.99964,-2.55768 -2.409,-3.3388 -6.02404,-3.3388 -2.30235,0 -2.85034,-0.10107 -3.70539,-0.68295 -1.53145,-1.04231 -2.17254,-2.0933 -2.1953,-3.59901 -0.0413,-2.73017 1.80649,-4.65045 4.47486,-4.65045 2.10221,0 3.19085,0.834 4.62232,3.54111 1.63273,3.08771 2.18349,3.41387 5.80538,3.43795 3.30774,0.022 4.29571,0.39877 5.44552,2.07682 0.46968,0.68545 0.66907,1.42736 0.66907,2.48952 0,1.2886 -0.20662,1.82623 -1.39262,3.62357 -1.27514,1.93241 -1.38225,2.2385 -1.26979,3.6281 0.0914,1.13023 0.42761,1.97582 1.31674,3.31249 1.01097,1.51983 1.1939,2.03967 1.1939,3.39244 0,3.04635 -2.54475,5.04237 -5.56387,4.3641 z"
         style="fill:#f1f1f1;fill-opacity:1;stroke-width:0.30352837" />
      <path
         inkscape:connector-curvature="0"
         inkscape:export-ydpi="300"
         inkscape:export-xdpi="300"
         inkscape:export-filename="C:\Users\luis\path826-43.png"
         id="path903-6-5-9-3-1"
         d="m 60.16824,170.62768 c -1.86507,-0.64376 -3.13655,-2.00943 -3.51536,-3.77575 -0.15562,-0.7256 -0.28294,-3.30596 -0.28294,-5.73412 v -4.41482 h -1.64442 -1.64441 v -1.9643 -1.96431 l 3.2291,-3.22194 3.22911,-3.22194 h 1.70414 1.70414 v 3.03585 3.03585 h 2.90936 2.90935 v 2.15039 2.1504 H 65.85696 62.9476 v 4.06725 4.06726 l 0.76705,0.76704 c 0.74894,0.74893 0.81612,0.7649 2.84611,0.67625 l 2.07906,-0.0907 0.14186,1.89741 c 0.10939,1.46301 0.0596,1.96637 -0.21759,2.19865 -1.08868,0.91237 -6.14609,1.11815 -8.39585,0.34162 z"
         style="fill:#f1f1f1;fill-opacity:1;stroke-width:0.2529873" />
      <path
         inkscape:connector-curvature="0"
         inkscape:export-ydpi="300"
         inkscape:export-xdpi="300"
         inkscape:export-filename="C:\Users\luis\path826-43.png"
         id="path901-9-6-4-0-3"
         d="m 79.67779,151.93108 c -0.41479,-0.006 -0.84349,0.004 -1.28667,0.0311 -2.72419,0.16432 -4.66741,0.88557 -6.26984,2.32629 -1.58946,1.42907 -2.50281,3.14488 -2.87575,5.40316 -0.90347,5.47069 2.14686,10.07273 7.40778,11.17492 0.60162,0.12604 2.57395,0.19662 4.38281,0.15713 2.69063,-0.0587 3.61094,-0.18272 5.05975,-0.68188 l 1.77091,-0.61023 -0.0914,-2.15039 c -0.0502,-1.18271 -0.11926,-2.18132 -0.15368,-2.21957 -0.0344,-0.0383 -0.59394,0.158 -1.2432,0.43631 -1.67458,0.7178 -4.27213,1.11583 -6.06032,0.92893 -2.55514,-0.26707 -4.29194,-1.3925 -4.83147,-3.13022 l -0.17689,-0.56923 h 6.8781 6.87759 l -0.10524,-2.34013 c -0.12607,-2.79786 -0.82338,-4.55563 -2.44885,-6.172 -1.70967,-1.70011 -3.93008,-2.54321 -6.83362,-2.58422 z m -0.33995,4.27261 c 0.74827,0.0129 1.49962,0.18252 2.02933,0.50548 0.81797,0.4987 1.80243,2.17705 1.8139,3.09267 0.005,0.40296 -0.34894,0.44273 -3.93612,0.44273 h -3.94107 l 0.17393,-0.8222 c 0.24808,-1.17306 0.97643,-2.26961 1.84848,-2.78287 0.51814,-0.30496 1.26328,-0.44866 2.01155,-0.43581 z"
         style="fill:#f1f1f1;fill-opacity:1;stroke-width:0.2529873" />
      <path
         inkscape:connector-curvature="0"
         inkscape:export-ydpi="300"
         inkscape:export-xdpi="300"
         inkscape:export-filename="C:\Users\luis\path826-43.png"
         id="path897-9-6-0-2-7"
         d="m 97.36001,170.73359 c -4.92048,-1.37871 -7.77008,-5.85221 -6.91345,-10.85318 0.88457,-5.16409 4.80726,-7.98418 11.10582,-7.98418 1.55778,0 5.56601,0.57265 5.82566,0.83229 0.0958,0.0958 -0.38699,4.54111 -0.50615,4.66028 -0.0432,0.0432 -0.58015,-0.10783 -1.19322,-0.33563 -0.67278,-0.24999 -1.91697,-0.41925 -3.13855,-0.42694 -2.30673,-0.0145 -3.63563,0.50201 -4.77501,1.85607 -0.83883,0.9969 -1.0035,1.66324 -0.86935,3.5179 0.13362,1.84722 1.02574,3.13022 2.70756,3.89385 1.88839,0.85743 5.22958,0.66384 7.9333,-0.45966 0.40361,-0.16772 0.44273,0.0298 0.44273,2.23668 v 2.42066 l -1.32819,0.4156 c -1.91956,0.60064 -7.47241,0.73589 -9.29115,0.22626 z"
         style="fill:#f1f1f1;fill-opacity:1;stroke-width:0.2529873" />
      <path
         inkscape:connector-curvature="0"
         inkscape:export-ydpi="300"
         inkscape:export-xdpi="300"
         inkscape:export-filename="C:\Users\luis\path826-43.png"
         id="path889-3-7-9-2-2"
         d="M 109.75026,157.58844 V 144.5596 h 3.28883 3.28884 v 5.08595 5.08595 l 0.93584,-0.82168 c 1.67171,-1.46778 2.93782,-1.88859 5.64182,-1.87516 2.85808,0.0143 4.29389,0.57339 5.70483,2.22176 1.466,1.71268 1.63181,2.7243 1.63181,9.95561 v 6.40526 h -3.16234 -3.16234 l -0.006,-5.123 c -0.003,-2.81764 -0.1096,-5.56956 -0.23618,-6.11536 -0.33003,-1.42297 -1.03711,-2.2457 -2.27312,-2.64489 -1.44286,-0.46602 -2.83941,-0.0486 -4.11932,1.23135 l -0.95493,0.95496 v 5.84847 5.84847 h -3.28884 -3.28883 z"
         style="fill:#f1f1f1;fill-opacity:1;stroke-width:0.2529873" />
      <path
         inkscape:connector-curvature="0"
         inkscape:export-ydpi="300"
         inkscape:export-xdpi="300"
         inkscape:export-filename="C:\Users\luis\path826-43.png"
         id="path885-6-8-3-0-8"
         d="m 84.28242,134.87251 c -0.5091,-0.22174 -1.28905,-0.83507 -1.73322,-1.36293 -2.7281,-3.24218 0.20728,-7.9858 4.44923,-7.19001 4.14055,0.77677 4.81931,6.654 0.97035,8.402 -1.46294,0.6644 -2.41779,0.7035 -3.68636,0.15094 z"
         style="fill:#f1f1f1;fill-opacity:1;stroke-width:0.30352837" />
      <g
         id="text9321-7-7-0-8-14"
         style="font-style:normal;font-weight:normal;font-size:6.48480511px;line-height:1.25;font-family:sans-serif;letter-spacing:0px;word-spacing:0px;fill:#f1f1f1;fill-opacity:1;stroke:none;stroke-width:0.40530032"
         aria-label="soluções que se conectam">
        <path
           id="path1479"
           style="fill:#f1f1f1;fill-opacity:1;stroke-width:0.40530032"
           d="m 49.174778,177.63241 q 0,0.48446 -0.402133,0.79477 -0.398968,0.31031 -1.092411,0.31031 -0.392635,0 -0.721942,-0.0918 -0.32614,-0.095 -0.547788,-0.20582 v -0.66811 h 0.03166 q 0.28181,0.21215 0.626949,0.33881 0.345138,0.12349 0.661779,0.12349 0.392635,0 0.614283,-0.12666 0.221649,-0.12666 0.221649,-0.39897 0,-0.20898 -0.120324,-0.31664 -0.120323,-0.10766 -0.462295,-0.18365 -0.126657,-0.0285 -0.332473,-0.0665 -0.20265,-0.038 -0.37047,-0.0823 -0.465462,-0.12349 -0.661779,-0.36097 -0.193151,-0.24065 -0.193151,-0.58895 0,-0.21849 0.08866,-0.41164 0.09183,-0.19315 0.275478,-0.34514 0.177319,-0.14882 0.44963,-0.23431 0.275477,-0.0887 0.614283,-0.0887 0.316641,0 0.639615,0.0792 0.32614,0.076 0.541455,0.18682 v 0.63645 h -0.03166 q -0.227981,-0.16782 -0.554121,-0.28181 -0.32614,-0.11716 -0.639615,-0.11716 -0.32614,0 -0.550955,0.12666 -0.224815,0.12349 -0.224815,0.37047 0,0.21848 0.136156,0.3293 0.132989,0.11083 0.430631,0.18049 0.164654,0.038 0.367304,0.076 0.205816,0.038 0.341972,0.0697 0.414799,0.095 0.639614,0.32614 0.224815,0.23432 0.224815,0.62062 z"
           inkscape:connector-curvature="0" />
        <path
           id="path1481"
           style="fill:#f1f1f1;fill-opacity:1;stroke-width:0.40530032"
           d="m 53.04413,176.88514 q 0,0.86443 -0.443297,1.36472 -0.443297,0.50029 -1.187404,0.50029 -0.750438,0 -1.193736,-0.50029 -0.44013,-0.50029 -0.44013,-1.36472 0,-0.86443 0.44013,-1.36473 0.443298,-0.50345 1.193736,-0.50345 0.744107,0 1.187404,0.50345 0.443297,0.5003 0.443297,1.36473 z m -0.614283,0 q 0,-0.68711 -0.269145,-1.01959 -0.269145,-0.33564 -0.747273,-0.33564 -0.48446,0 -0.753605,0.33564 -0.265978,0.33248 -0.265978,1.01959 0,0.66494 0.269145,1.01008 0.269144,0.34197 0.750438,0.34197 0.474962,0 0.744107,-0.3388 0.272311,-0.34197 0.272311,-1.01325 z"
           inkscape:connector-curvature="0" />
        <path
           id="path1483"
           style="fill:#f1f1f1;fill-opacity:1;stroke-width:0.40530032"
           d="m 54.570339,178.65199 h -0.595285 v -4.92693 h 0.595285 z"
           inkscape:connector-curvature="0" />
        <path
           id="path1485"
           style="fill:#f1f1f1;fill-opacity:1;stroke-width:0.40530032"
           d="m 58.686671,178.65199 h -0.595285 v -0.39263 q -0.300809,0.23748 -0.576286,0.36414 -0.275478,0.12665 -0.607951,0.12665 -0.557288,0 -0.867596,-0.3388 -0.310308,-0.34198 -0.310308,-1.00059 v -2.29565 h 0.595285 v 2.01384 q 0,0.26914 0.02533,0.4623 0.02533,0.18998 0.107658,0.32614 0.08549,0.13932 0.221649,0.20265 0.136155,0.0633 0.395801,0.0633 0.231148,0 0.503459,-0.12032 0.275477,-0.12032 0.512958,-0.30714 v -2.64079 h 0.595285 z"
           inkscape:connector-curvature="0" />
        <path
           id="path1487"
           style="fill:#f1f1f1;fill-opacity:1;stroke-width:0.40530032"
           d="m 62.473695,178.43034 q -0.104491,0.0475 -0.227981,0.0982 -0.120324,0.0475 -0.212149,0.076 0.0095,0.0602 0.01583,0.14882 0.0095,0.0918 0.0095,0.18048 0,0.51296 -0.29131,0.78527 -0.288143,0.27231 -0.750439,0.27231 -0.117157,0 -0.300808,-0.0222 -0.183652,-0.0222 -0.326141,-0.0602 v -0.50663 h 0.0285 q 0.08233,0.0317 0.221649,0.0728 0.139322,0.0412 0.297642,0.0412 0.329307,0 0.484461,-0.12349 0.155154,-0.12349 0.155154,-0.40213 0,-0.0697 -0.0063,-0.14249 -0.0032,-0.0728 -0.0095,-0.13616 -0.05066,0.006 -0.09816,0.0127 -0.04433,0.006 -0.12349,0.006 -0.383135,0 -0.702943,-0.11082 -0.319807,-0.11399 -0.547788,-0.34197 -0.231148,-0.22798 -0.357805,-0.57629 -0.126656,-0.3483 -0.126656,-0.81377 0,-0.86759 0.474961,-1.36155 0.478128,-0.49396 1.260231,-0.49396 0.303975,0 0.595285,0.0855 0.294476,0.0855 0.538289,0.20898 v 0.66178 h -0.03166 q -0.272311,-0.21215 -0.56362,-0.32614 -0.288144,-0.11399 -0.563621,-0.11399 -0.506626,0 -0.801102,0.34197 -0.291309,0.33881 -0.291309,0.99742 0,0.63962 0.284977,0.98476 0.288143,0.34197 0.807434,0.34197 0.180485,0 0.367303,-0.0475 0.186818,-0.0475 0.33564,-0.12349 0.129822,-0.0665 0.243813,-0.13932 0.113991,-0.076 0.180485,-0.12982 h 0.03166 z"
           inkscape:connector-curvature="0" />
        <path
           id="path1489"
           style="fill:#f1f1f1;fill-opacity:1;stroke-width:0.40530032"
           d="m 66.254387,176.88514 q 0,0.86443 -0.443297,1.36472 -0.443297,0.50029 -1.187403,0.50029 -0.750439,0 -1.193736,-0.50029 -0.440131,-0.50029 -0.440131,-1.36472 0,-0.86443 0.440131,-1.36473 0.443297,-0.50345 1.193736,-0.50345 0.744106,0 1.187403,0.50345 0.443297,0.5003 0.443297,1.36473 z m -0.614283,0 q 0,-0.68711 -0.269145,-1.01959 -0.269145,-0.33564 -0.747272,-0.33564 -0.484461,0 -0.753606,0.33564 -0.265978,0.33248 -0.265978,1.01959 0,0.66494 0.269145,1.01008 0.269145,0.34197 0.750439,0.34197 0.474961,0 0.744106,-0.3388 0.272311,-0.34197 0.272311,-1.01325 z m 0.300809,-3.35956 q -0.03483,0.48129 -0.243814,0.7251 -0.208983,0.24382 -0.560454,0.24382 -0.170986,0 -0.316641,-0.0602 -0.145655,-0.0633 -0.275477,-0.18049 -0.148822,-0.13615 -0.253313,-0.20265 -0.101325,-0.0697 -0.224815,-0.0697 -0.164653,0 -0.24698,0.14249 -0.08233,0.14249 -0.09499,0.38313 h -0.4148 q 0.02533,-0.47812 0.250146,-0.72194 0.224815,-0.24381 0.550956,-0.24381 0.15832,0 0.303975,0.0633 0.148821,0.0602 0.28181,0.17415 0.148821,0.12982 0.262812,0.19632 0.117157,0.0633 0.221649,0.0633 0.161487,0 0.250146,-0.14566 0.09183,-0.14565 0.101325,-0.3673 z"
           inkscape:connector-curvature="0" />
        <path
           id="path1491"
           style="fill:#f1f1f1;fill-opacity:1;stroke-width:0.40530032"
           d="m 70.139571,176.9453 h -2.605955 q 0,0.32614 0.09816,0.56995 0.09816,0.24065 0.269145,0.3958 0.164653,0.15199 0.389468,0.22798 0.227982,0.076 0.500293,0.076 0.36097,0 0.725107,-0.14249 0.367304,-0.14565 0.522458,-0.28498 h 0.03166 v 0.64912 q -0.300809,0.12665 -0.614283,0.21215 -0.313475,0.0855 -0.658613,0.0855 -0.880262,0 -1.374222,-0.47496 -0.49396,-0.47813 -0.49396,-1.35522 0,-0.8676 0.471795,-1.37739 0.474962,-0.50979 1.247565,-0.50979 0.715609,0 1.101911,0.41796 0.389468,0.41797 0.389468,1.1874 z m -0.579453,-0.45596 q -0.0032,-0.46863 -0.237481,-0.72511 -0.231147,-0.25648 -0.706109,-0.25648 -0.478127,0 -0.763104,0.28181 -0.281811,0.28181 -0.319808,0.69978 z"
           inkscape:connector-curvature="0" />
        <path
           id="path1493"
           style="fill:#f1f1f1;fill-opacity:1;stroke-width:0.40530032"
           d="m 73.568791,177.63241 q 0,0.48446 -0.402134,0.79477 -0.398968,0.31031 -1.092411,0.31031 -0.392635,0 -0.721941,-0.0918 -0.32614,-0.095 -0.547789,-0.20582 v -0.66811 h 0.03166 q 0.281811,0.21215 0.626949,0.33881 0.345139,0.12349 0.661779,0.12349 0.392635,0 0.614284,-0.12666 0.221648,-0.12666 0.221648,-0.39897 0,-0.20898 -0.120323,-0.31664 -0.120324,-0.10766 -0.462296,-0.18365 -0.126656,-0.0285 -0.332473,-0.0665 -0.20265,-0.038 -0.37047,-0.0823 -0.465462,-0.12349 -0.661779,-0.36097 -0.193151,-0.24065 -0.193151,-0.58895 0,-0.21849 0.08866,-0.41164 0.09183,-0.19315 0.275477,-0.34514 0.177319,-0.14882 0.44963,-0.23431 0.275478,-0.0887 0.614283,-0.0887 0.316641,0 0.639615,0.0792 0.32614,0.076 0.541456,0.18682 v 0.63645 h -0.03166 q -0.227982,-0.16782 -0.554122,-0.28181 -0.32614,-0.11716 -0.639614,-0.11716 -0.32614,0 -0.550955,0.12666 -0.224815,0.12349 -0.224815,0.37047 0,0.21848 0.136155,0.3293 0.132989,0.11083 0.430632,0.18049 0.164653,0.038 0.367303,0.076 0.205817,0.038 0.341972,0.0697 0.4148,0.095 0.639615,0.32614 0.224815,0.23432 0.224815,0.62062 z"
           inkscape:connector-curvature="0" />
        <path
           id="path1495"
           style="fill:#f1f1f1;fill-opacity:1;stroke-width:0.40530032"
           d="m 79.572302,179.95655 h -0.595285 v -1.70352 q -0.275477,0.23748 -0.547788,0.35463 -0.272312,0.11399 -0.588952,0.11399 -0.630116,0 -1.006918,-0.48446 -0.373637,-0.48762 -0.373637,-1.34255 0,-0.45597 0.129823,-0.80427 0.132989,-0.35147 0.348305,-0.58895 0.208983,-0.23115 0.490793,-0.35781 0.281811,-0.12665 0.595285,-0.12665 0.284977,0 0.503459,0.0633 0.221649,0.0633 0.44963,0.18682 l 0.038,-0.15199 h 0.557288 z m -0.595285,-2.20382 v -2.00117 q -0.24698,-0.11082 -0.436964,-0.15515 -0.189985,-0.0443 -0.411633,-0.0443 -0.516125,0 -0.78527,0.35147 -0.269144,0.3483 -0.269144,0.96259 0,0.62061 0.215315,0.95625 0.218483,0.33248 0.683945,0.33248 0.259645,0 0.519291,-0.11083 0.259645,-0.11399 0.48446,-0.29131 z"
           inkscape:connector-curvature="0" />
        <path
           id="path1497"
           style="fill:#f1f1f1;fill-opacity:1;stroke-width:0.40530032"
           d="m 83.675969,178.65199 h -0.595285 v -0.39263 q -0.300809,0.23748 -0.576286,0.36414 -0.275478,0.12665 -0.607951,0.12665 -0.557288,0 -0.867596,-0.3388 -0.310308,-0.34198 -0.310308,-1.00059 v -2.29565 h 0.595285 v 2.01384 q 0,0.26914 0.02533,0.4623 0.02533,0.18998 0.107658,0.32614 0.08549,0.13932 0.221649,0.20265 0.136155,0.0633 0.395801,0.0633 0.231148,0 0.503459,-0.12032 0.275477,-0.12032 0.512958,-0.30714 v -2.64079 h 0.595285 z"
           inkscape:connector-curvature="0" />
        <path
           id="path1499"
           style="fill:#f1f1f1;fill-opacity:1;stroke-width:0.40530032"
           d="m 87.808131,176.9453 h -2.605955 q 0,0.32614 0.09816,0.56995 0.09816,0.24065 0.269145,0.3958 0.164653,0.15199 0.389468,0.22798 0.227982,0.076 0.500293,0.076 0.36097,0 0.725107,-0.14249 0.367304,-0.14565 0.522458,-0.28498 h 0.03166 v 0.64912 q -0.300809,0.12665 -0.614283,0.21215 -0.313475,0.0855 -0.658613,0.0855 -0.880262,0 -1.374222,-0.47496 -0.49396,-0.47813 -0.49396,-1.35522 0,-0.8676 0.471795,-1.37739 0.474962,-0.50979 1.247565,-0.50979 0.715609,0 1.101911,0.41796 0.389468,0.41797 0.389468,1.1874 z m -0.579453,-0.45596 q -0.0032,-0.46863 -0.237481,-0.72511 -0.231147,-0.25648 -0.706109,-0.25648 -0.478127,0 -0.763104,0.28181 -0.281811,0.28181 -0.319808,0.69978 z"
           inkscape:connector-curvature="0" />
        <path
           id="path1501"
           style="fill:#f1f1f1;fill-opacity:1;stroke-width:0.40530032"
           d="m 93.517167,177.63241 q 0,0.48446 -0.402134,0.79477 -0.398968,0.31031 -1.092411,0.31031 -0.392635,0 -0.721942,-0.0918 -0.32614,-0.095 -0.547788,-0.20582 v -0.66811 h 0.03166 q 0.28181,0.21215 0.626949,0.33881 0.345138,0.12349 0.661779,0.12349 0.392635,0 0.614283,-0.12666 0.221649,-0.12666 0.221649,-0.39897 0,-0.20898 -0.120323,-0.31664 -0.120324,-0.10766 -0.462296,-0.18365 -0.126656,-0.0285 -0.332473,-0.0665 -0.20265,-0.038 -0.37047,-0.0823 -0.465462,-0.12349 -0.661779,-0.36097 -0.193151,-0.24065 -0.193151,-0.58895 0,-0.21849 0.08866,-0.41164 0.09183,-0.19315 0.275478,-0.34514 0.177319,-0.14882 0.44963,-0.23431 0.275477,-0.0887 0.614283,-0.0887 0.316641,0 0.639615,0.0792 0.32614,0.076 0.541456,0.18682 v 0.63645 h -0.03166 q -0.227982,-0.16782 -0.554122,-0.28181 -0.32614,-0.11716 -0.639615,-0.11716 -0.32614,0 -0.550955,0.12666 -0.224815,0.12349 -0.224815,0.37047 0,0.21848 0.136156,0.3293 0.132989,0.11083 0.430631,0.18049 0.164654,0.038 0.367304,0.076 0.205816,0.038 0.341972,0.0697 0.4148,0.095 0.639615,0.32614 0.224815,0.23432 0.224815,0.62062 z"
           inkscape:connector-curvature="0" />
        <path
           id="path1503"
           style="fill:#f1f1f1;fill-opacity:1;stroke-width:0.40530032"
           d="m 97.33269,176.9453 h -2.605954 q 0,0.32614 0.09816,0.56995 0.09816,0.24065 0.269145,0.3958 0.164653,0.15199 0.389468,0.22798 0.227982,0.076 0.500293,0.076 0.36097,0 0.725107,-0.14249 0.367304,-0.14565 0.522458,-0.28498 h 0.03166 v 0.64912 q -0.300809,0.12665 -0.614283,0.21215 -0.313475,0.0855 -0.658613,0.0855 -0.880262,0 -1.374222,-0.47496 -0.49396,-0.47813 -0.49396,-1.35522 0,-0.8676 0.471795,-1.37739 0.474962,-0.50979 1.247565,-0.50979 0.715609,0 1.101911,0.41796 0.389468,0.41797 0.389468,1.1874 z m -0.579453,-0.45596 q -0.0032,-0.46863 -0.237481,-0.72511 -0.231147,-0.25648 -0.706109,-0.25648 -0.478127,0 -0.763104,0.28181 -0.281811,0.28181 -0.319807,0.69978 z"
           inkscape:connector-curvature="0" />
        <path
           id="path1505"
           style="fill:#f1f1f1;fill-opacity:1;stroke-width:0.40530032"
           d="m 103.13039,178.43034 q -0.29765,0.14249 -0.56679,0.22165 -0.26598,0.0792 -0.56679,0.0792 -0.38313,0 -0.70294,-0.11082 -0.31981,-0.11399 -0.54779,-0.34197 -0.23115,-0.22798 -0.3578,-0.57629 -0.12666,-0.3483 -0.12666,-0.81377 0,-0.86759 0.47496,-1.36155 0.47813,-0.49396 1.26023,-0.49396 0.30398,0 0.59529,0.0855 0.29447,0.0855 0.53829,0.20898 v 0.66178 h -0.0317 q -0.27231,-0.21215 -0.56362,-0.32614 -0.28814,-0.11399 -0.56362,-0.11399 -0.50663,0 -0.8011,0.34197 -0.29131,0.33881 -0.29131,0.99742 0,0.63962 0.28498,0.98476 0.28814,0.34197 0.80743,0.34197 0.18048,0 0.3673,-0.0475 0.18682,-0.0475 0.33564,-0.12349 0.12982,-0.0665 0.24382,-0.13932 0.11399,-0.076 0.18048,-0.12982 h 0.0317 z"
           inkscape:connector-curvature="0" />
        <path
           id="path1507"
           style="fill:#f1f1f1;fill-opacity:1;stroke-width:0.40530032"
           d="m 106.91108,176.88514 q 0,0.86443 -0.4433,1.36472 -0.4433,0.50029 -1.1874,0.50029 -0.75044,0 -1.19374,-0.50029 -0.44013,-0.50029 -0.44013,-1.36472 0,-0.86443 0.44013,-1.36473 0.4433,-0.50345 1.19374,-0.50345 0.7441,0 1.1874,0.50345 0.4433,0.5003 0.4433,1.36473 z m -0.61429,0 q 0,-0.68711 -0.26914,-1.01959 -0.26914,-0.33564 -0.74727,-0.33564 -0.48446,0 -0.75361,0.33564 -0.26598,0.33248 -0.26598,1.01959 0,0.66494 0.26915,1.01008 0.26914,0.34197 0.75044,0.34197 0.47496,0 0.7441,-0.3388 0.27231,-0.34197 0.27231,-1.01325 z"
           inkscape:connector-curvature="0" />
        <path
           id="path1509"
           style="fill:#f1f1f1;fill-opacity:1;stroke-width:0.40530032"
           d="m 110.79309,178.65199 h -0.59528 v -2.01383 q 0,-0.24382 -0.0285,-0.45597 -0.0285,-0.21531 -0.10449,-0.33564 -0.0792,-0.13298 -0.22798,-0.19631 -0.14882,-0.0665 -0.3863,-0.0665 -0.24382,0 -0.5098,0.12033 -0.26597,0.12032 -0.50979,0.30714 v 2.64078 h -0.59528 v -3.53688 h 0.59528 v 0.39264 q 0.27865,-0.23115 0.57629,-0.36097 0.29764,-0.12982 0.61112,-0.12982 0.57312,0 0.87392,0.34513 0.30081,0.34514 0.30081,0.99426 z"
           inkscape:connector-curvature="0" />
        <path
           id="path1511"
           style="fill:#f1f1f1;fill-opacity:1;stroke-width:0.40530032"
           d="m 114.89993,176.9453 h -2.60596 q 0,0.32614 0.0982,0.56995 0.0982,0.24065 0.26915,0.3958 0.16465,0.15199 0.38947,0.22798 0.22798,0.076 0.50029,0.076 0.36097,0 0.72511,-0.14249 0.3673,-0.14565 0.52245,-0.28498 h 0.0317 v 0.64912 q -0.30081,0.12665 -0.61429,0.21215 -0.31347,0.0855 -0.65861,0.0855 -0.88026,0 -1.37422,-0.47496 -0.49396,-0.47813 -0.49396,-1.35522 0,-0.8676 0.47179,-1.37739 0.47497,-0.50979 1.24757,-0.50979 0.71561,0 1.10191,0.41796 0.38947,0.41797 0.38947,1.1874 z m -0.57946,-0.45596 q -0.003,-0.46863 -0.23748,-0.72511 -0.23114,-0.25648 -0.7061,-0.25648 -0.47813,0 -0.76311,0.28181 -0.28181,0.28181 -0.31981,0.69978 z"
           inkscape:connector-curvature="0" />
        <path
           id="path1513"
           style="fill:#f1f1f1;fill-opacity:1;stroke-width:0.40530032"
           d="m 118.4178,178.43034 q -0.29764,0.14249 -0.56678,0.22165 -0.26598,0.0792 -0.56679,0.0792 -0.38314,0 -0.70294,-0.11082 -0.31981,-0.11399 -0.54779,-0.34197 -0.23115,-0.22798 -0.35781,-0.57629 -0.12665,-0.3483 -0.12665,-0.81377 0,-0.86759 0.47496,-1.36155 0.47813,-0.49396 1.26023,-0.49396 0.30397,0 0.59528,0.0855 0.29448,0.0855 0.53829,0.20898 v 0.66178 h -0.0317 q -0.27231,-0.21215 -0.56362,-0.32614 -0.28814,-0.11399 -0.56362,-0.11399 -0.50663,0 -0.8011,0.34197 -0.29131,0.33881 -0.29131,0.99742 0,0.63962 0.28497,0.98476 0.28815,0.34197 0.80744,0.34197 0.18048,0 0.3673,-0.0475 0.18682,-0.0475 0.33564,-0.12349 0.12982,-0.0665 0.24381,-0.13932 0.11399,-0.076 0.18049,-0.12982 h 0.0317 z"
           inkscape:connector-curvature="0" />
        <path
           id="path1515"
           style="fill:#f1f1f1;fill-opacity:1;stroke-width:0.40530032"
           d="m 121.0206,178.62033 q -0.16782,0.0443 -0.36731,0.0728 -0.19631,0.0285 -0.35147,0.0285 -0.54145,0 -0.82327,-0.29131 -0.28181,-0.29131 -0.28181,-0.93409 v -1.88084 h -0.40213 v -0.5003 h 0.40213 v -1.01641 h 0.59529 v 1.01641 h 1.22857 v 0.5003 h -1.22857 v 1.6117 q 0,0.27864 0.0127,0.43696 0.0127,0.15516 0.0887,0.29131 0.0697,0.12666 0.18999,0.18682 0.12349,0.057 0.37364,0.057 0.14565,0 0.30397,-0.0412 0.15832,-0.0443 0.22798,-0.0728 h 0.0317 z"
           inkscape:connector-curvature="0" />
        <path
           id="path1517"
           style="fill:#f1f1f1;fill-opacity:1;stroke-width:0.40530032"
           d="m 124.49098,178.65199 h -0.59212 v -0.3768 q -0.0792,0.0538 -0.21532,0.15199 -0.13299,0.095 -0.25964,0.15199 -0.14882,0.0728 -0.34197,0.12032 -0.19315,0.0507 -0.4528,0.0507 -0.47813,0 -0.8106,-0.31664 -0.33247,-0.31664 -0.33247,-0.80743 0,-0.40214 0.17098,-0.64912 0.17415,-0.25014 0.49396,-0.39263 0.32298,-0.14249 0.77577,-0.19315 0.4528,-0.0507 0.97209,-0.076 v -0.0918 q 0,-0.20265 -0.0728,-0.33564 -0.0697,-0.13299 -0.20265,-0.20899 -0.12665,-0.0728 -0.30397,-0.0982 -0.17732,-0.0253 -0.37047,-0.0253 -0.23432,0 -0.52246,0.0633 -0.28814,0.0602 -0.59529,0.17732 h -0.0317 v -0.60478 q 0.17415,-0.0475 0.50346,-0.10449 0.32931,-0.057 0.64911,-0.057 0.37364,0 0.64912,0.0633 0.27864,0.0602 0.48129,0.20898 0.19949,0.14566 0.30398,0.3768 0.10449,0.23115 0.10449,0.57312 z m -0.59212,-0.87076 v -0.98475 q -0.27231,0.0158 -0.64278,0.0475 -0.3673,0.0317 -0.58262,0.0918 -0.25648,0.0728 -0.4148,0.22798 -0.15832,0.15199 -0.15832,0.42113 0,0.30398 0.18365,0.45913 0.18365,0.15199 0.56046,0.15199 0.31347,0 0.57312,-0.12032 0.25964,-0.12349 0.48129,-0.29448 z"
           inkscape:connector-curvature="0" />
        <path
           id="path1519"
           style="fill:#f1f1f1;fill-opacity:1;stroke-width:0.40530032"
           d="m 130.8048,178.65199 h -0.59529 v -2.01383 q 0,-0.22798 -0.0222,-0.44013 -0.019,-0.21215 -0.0855,-0.33881 -0.0728,-0.13616 -0.20899,-0.20582 -0.13615,-0.0697 -0.39263,-0.0697 -0.25015,0 -0.5003,0.12666 -0.25014,0.12349 -0.50029,0.31664 0.01,0.0728 0.0158,0.17099 0.006,0.095 0.006,0.18998 v 2.26398 h -0.59529 v -2.01383 q 0,-0.23432 -0.0222,-0.4433 -0.019,-0.21215 -0.0855,-0.33881 -0.0728,-0.13615 -0.20898,-0.20265 -0.13615,-0.0697 -0.39263,-0.0697 -0.24382,0 -0.4908,0.12033 -0.24381,0.12032 -0.48762,0.30714 v 2.64078 h -0.59529 v -3.53688 h 0.59529 v 0.39264 q 0.27864,-0.23115 0.55412,-0.36097 0.27864,-0.12982 0.59212,-0.12982 0.36097,0 0.61111,0.15198 0.25332,0.15199 0.37681,0.42114 0.36097,-0.30398 0.65861,-0.43697 0.29764,-0.13615 0.63645,-0.13615 0.58262,0 0.85809,0.35463 0.27865,0.35147 0.27865,0.98476 z"
           inkscape:connector-curvature="0" />
      </g>
    </g>
  </g>
</svg>
