<?xml version="1.0" encoding="UTF-8" standalone="no"?>
<svg
   width="2500"
   height="2461"
   viewBox="0 0 256 252"
   preserveAspectRatio="xMinYMin meet"
   version="1.1"
   id="svg2"
   sodipodi:docname="MySQL.svg"
   inkscape:version="1.3.2 (091e20ef0f, 2023-11-25)"
   xmlns:inkscape="http://www.inkscape.org/namespaces/inkscape"
   xmlns:sodipodi="http://sodipodi.sourceforge.net/DTD/sodipodi-0.dtd"
   xmlns="http://www.w3.org/2000/svg"
   xmlns:svg="http://www.w3.org/2000/svg">
  <defs
     id="defs2" />
  <sodipodi:namedview
     id="namedview2"
     pagecolor="#ffffff"
     bordercolor="#000000"
     borderopacity="0.25"
     inkscape:showpageshadow="2"
     inkscape:pageopacity="0.0"
     inkscape:pagecheckerboard="0"
     inkscape:deskcolor="#d1d1d1"
     inkscape:zoom="0.34457538"
     inkscape:cx="1249.3638"
     inkscape:cy="1128.9257"
     inkscape:window-width="2560"
     inkscape:window-height="1052"
     inkscape:window-x="0"
     inkscape:window-y="0"
     inkscape:window-maximized="1"
     inkscape:current-layer="svg2" />
  <path
     d="m 196.1274,169.02204 c -8.81177,-0.21969 -15.64123,0.66161 -21.36907,3.08456 -1.65245,0.66035 -4.29636,0.66098 -4.51668,2.75407 0.8813,0.88131 0.99147,2.31343 1.76261,3.52458 1.32322,2.20263 3.63474,5.17703 5.72783,6.71994 2.31279,1.76197 4.62684,3.52395 7.04916,5.06623 4.29636,2.64391 9.14352,4.18555 13.32908,6.82946 2.42422,1.54102 4.8459,3.52522 7.26948,5.17703 1.2118,0.88003 1.9823,2.31342 3.52522,2.8636 v -0.32986 c -0.77178,-0.9921 -0.9921,-2.42358 -1.76261,-3.52521 -1.10036,-1.10163 -2.20326,-2.09309 -3.30489,-3.19472 -3.19409,-4.29509 -7.15932,-8.04063 -11.45504,-11.12456 -3.52458,-2.42358 -11.23598,-5.72783 -12.66746,-9.80386 0,0 -0.1108,-0.10953 -0.22033,-0.21969 2.42295,-0.22033 5.28655,-1.10163 7.60061,-1.76261 3.7449,-0.9921 7.15932,-0.77114 11.01502,-1.76261 1.76197,-0.44065 3.52458,-0.99146 5.28655,-1.54228 v -0.99083 c -1.98166,-1.98293 -3.41378,-4.62621 -5.50688,-6.49898 -5.61767,-4.8478 -11.78679,-9.58354 -18.17497,-13.54877 -3.41505,-2.20326 -7.82157,-3.63537 -11.45631,-5.50751 -1.32069,-0.66161 -3.52458,-0.99147 -4.29509,-2.09309 -1.98357,-2.42296 -3.08519,-5.61705 -4.51668,-8.48128 -3.19346,-6.05896 -6.27865,-12.77763 -9.03272,-19.16581 -1.98167,-4.29636 -3.19346,-8.59271 -5.61704,-12.55731 C 133.45167,84.20674 121.11469,72.861227 102.16921,61.735408 98.093182,59.42262 93.246647,58.431154 88.069624,57.219995 85.316818,57.109199 82.562113,56.889507 79.808673,56.778711 78.046067,56.00757 76.283461,53.915108 74.74118,52.923642 68.463794,48.957778 52.270481,40.366971 47.644273,51.712484 c -2.974398,7.159322 4.406516,14.208481 6.938996,17.84449 1.874036,2.533113 4.296353,5.396715 5.618308,8.260951 0.77114,1.871503 0.990833,3.855701 1.761973,5.838 1.76324,4.845268 3.414417,10.243883 5.728471,14.760562 1.211792,2.312783 2.533113,4.735743 4.075394,6.828833 0.881303,1.21116 2.422951,1.76261 2.754072,3.74491 -1.541647,2.20325 -1.652443,5.50814 -2.534379,8.26158 -3.965232,12.44714 -2.422318,27.86805 3.194724,37.0103 1.761973,2.75281 5.948163,8.81303 11.565838,6.49898 4.95733,-1.9823 3.855701,-8.26095 5.286552,-13.76846 0.331755,-1.32322 0.11143,-2.20326 0.771774,-3.08456 v 0.22095 c 1.54228,3.0833 3.083928,6.05833 4.516046,9.14226 3.415048,5.39671 9.362578,11.01502 14.319278,14.76056 2.64454,1.98167 4.737,5.39672 8.04189,6.60851 v -0.33112 h -0.22096 c -0.66098,-0.99147 -1.65244,-1.43149 -2.53311,-2.20326 -1.9823,-1.98167 -4.18619,-4.40525 -5.72784,-6.60851 -4.62558,-6.16912 -8.70224,-12.99795 -12.336978,-20.04775 -1.761973,-3.41378 -3.304887,-7.15932 -4.736371,-10.57374 -0.661611,-1.32322 -0.661611,-3.30488 -1.762607,-3.96523 -1.652443,2.42295 -4.075394,4.51605 -5.287186,7.48981 -2.091828,4.73638 -2.312787,10.57438 -3.083928,16.63207 -0.440651,0.11143 -0.220959,0 -0.441284,0.22159 -3.523947,-0.88257 -4.735739,-4.51668 -6.058327,-7.60124 -3.304887,-7.8203 -3.855701,-20.3776 -0.990833,-29.40969 0.771141,-2.31342 4.076028,-9.58291 2.754073,-11.78617 -0.660978,-2.09309 -2.864869,-3.30488 -4.076027,-4.95669 C 73.750347,99.40732 72.207433,96.764677 71.2166,94.450623 68.572691,88.282134 67.250736,81.452667 64.387134,75.284178 63.065179,72.419943 60.753025,69.446811 58.879622,66.802901 56.78716,63.829136 54.473739,61.735408 52.821296,58.210828 52.271115,56.99967 51.499341,55.016737 52.380644,53.694783 c 0.220326,-0.881304 0.660345,-1.211159 1.542281,-1.431485 1.432118,-1.212425 5.508145,0.329856 6.938996,0.990833 4.076027,1.651177 7.490444,3.194724 10.905494,5.507512 1.541647,1.101629 3.194091,3.194724 5.17639,3.745538 h 2.313421 c 3.525212,0.770507 7.489811,0.220326 10.794697,1.211159 5.838634,1.872136 11.125187,4.626209 15.862187,7.600607 14.43008,9.142254 26.32514,22.14021 34.36703,37.671283 1.32195,2.53248 1.87214,4.84716 3.08393,7.48981 2.31405,5.39798 5.17765,10.90549 7.48981,16.19268 2.31342,5.17639 4.51604,10.46421 7.82093,14.76056 1.65244,2.31215 8.26095,3.52458 11.23535,4.73637 2.20326,0.99083 5.61831,1.87277 7.60061,3.08393 3.7449,2.31215 7.48981,4.95733 11.01502,7.48981 1.76261,1.32195 7.26949,4.07603 7.60061,6.27865 z"
     fill="#00546B"
     id="path1"
     style="fill:#ffffff;stroke-width:0.63312" />
  <path
     d="m 83.772638,73.300613 c -1.872136,0 -3.193458,0.221592 -4.515412,0.551447 v 0.220326 h 0.220326 c 0.881936,1.762607 2.42295,2.974398 3.523946,4.516046 0.881936,1.761973 1.652443,3.525213 2.53438,5.287819 0.10953,-0.110796 0.219692,-0.220326 0.219692,-0.220326 1.542914,-1.102262 2.313421,-2.864235 2.313421,-5.508145 -0.660977,-0.770507 -0.77114,-1.541647 -1.321954,-2.312787 -0.660345,-1.102263 -2.093096,-1.652444 -2.974399,-2.53438 z"
     fill="#00546B"
     id="path2"
     style="fill:#ffffff;stroke-width:0.63312" />
</svg>
