<?xml version="1.0" encoding="UTF-8" standalone="no"?>
<svg
   aria-label="PHP"
   role="img"
   viewBox="0 0 512 512"
   version="1.1"
   id="svg1"
   sodipodi:docname="php.svg"
   inkscape:version="1.3.2 (091e20ef0f, 2023-11-25)"
   xmlns:inkscape="http://www.inkscape.org/namespaces/inkscape"
   xmlns:sodipodi="http://sodipodi.sourceforge.net/DTD/sodipodi-0.dtd"
   xmlns:xlink="http://www.w3.org/1999/xlink"
   xmlns="http://www.w3.org/2000/svg"
   xmlns:svg="http://www.w3.org/2000/svg">
  <defs
     id="defs1" />
  <sodipodi:namedview
     id="namedview1"
     pagecolor="#ffffff"
     bordercolor="#000000"
     borderopacity="0.25"
     inkscape:showpageshadow="2"
     inkscape:pageopacity="0.0"
     inkscape:pagecheckerboard="0"
     inkscape:deskcolor="#d1d1d1"
     inkscape:zoom="1.65625"
     inkscape:cx="255.69811"
     inkscape:cy="256"
     inkscape:window-width="2560"
     inkscape:window-height="1052"
     inkscape:window-x="0"
     inkscape:window-y="0"
     inkscape:window-maximized="1"
     inkscape:current-layer="svg1" />
  <g
     stroke="#fff"
     stroke-width="6"
     id="g1"
     style="fill:#ffffff;stroke:#f2f2f2">
    <path
       id="a"
       d="M155 202H97a3 3 0 0 0-3 2L67 345c0 3 3 3 3 3h30c3 0 3-2 3-2l7-35h27c42 0 63-28 68-53s1-56-50-56zm13 54c-4 19-17 27-35 27h-18l11-53h18c27 0 26 10 24 26z"
       style="fill:#ffffff;stroke:#f2f2f2" />
    <path
       d="M275 311c-4 0-3-4-3-4l12-61c0-8 6-16-18-15h-18l-15 78s0 3-4 3h-29c-3 0-3-3-3-3l28-141s0-2 4-2h30c3 0 2 3 2 3l-7 34h26c36 0 45 17 42 37l-13 69s0 3-5 3z"
       id="path1"
       style="fill:#ffffff;stroke:#f2f2f2" />
    <use
       xlink:href="#a"
       x="239"
       id="use1"
       style="fill:#ffffff;stroke:#f2f2f2" />
  </g>
</svg>
