<?xml version="1.0" encoding="UTF-8" standalone="no"?>
<svg
   viewBox="0 0 3232 3333.3333"
   height="3333.3333"
   width="3232"
   xml:space="preserve"
   id="svg2"
   version="1.1"
   sodipodi:docname="PostgreSQL.svg"
   inkscape:version="1.3.2 (091e20ef0f, 2023-11-25)"
   xmlns:inkscape="http://www.inkscape.org/namespaces/inkscape"
   xmlns:sodipodi="http://sodipodi.sourceforge.net/DTD/sodipodi-0.dtd"
   xmlns="http://www.w3.org/2000/svg"
   xmlns:svg="http://www.w3.org/2000/svg"
   xmlns:rdf="http://www.w3.org/1999/02/22-rdf-syntax-ns#"
   xmlns:cc="http://creativecommons.org/ns#"
   xmlns:dc="http://purl.org/dc/elements/1.1/"><sodipodi:namedview
     id="namedview1"
     pagecolor="#ffffff"
     bordercolor="#000000"
     borderopacity="0.25"
     inkscape:showpageshadow="2"
     inkscape:pageopacity="0.0"
     inkscape:pagecheckerboard="0"
     inkscape:deskcolor="#d1d1d1"
     inkscape:zoom="0.17988797"
     inkscape:cx="1487.0366"
     inkscape:cy="1912.3013"
     inkscape:window-width="2560"
     inkscape:window-height="1052"
     inkscape:window-x="0"
     inkscape:window-y="0"
     inkscape:window-maximized="1"
     inkscape:current-layer="svg2" /><metadata
     id="metadata8"><rdf:RDF><cc:Work
         rdf:about=""><dc:format>image/svg+xml</dc:format><dc:type
           rdf:resource="http://purl.org/dc/dcmitype/StillImage" /></cc:Work></rdf:RDF></metadata><defs
     id="defs6"><clipPath
       id="clipPath18"
       clipPathUnits="userSpaceOnUse"><path
         id="path16"
         d="M 0,2500 H 2424 V 0 H 0 Z" /></clipPath></defs><path
     id="path30"
     style="fill:#ffffff;fill-opacity:1;fill-rule:nonzero;stroke:none;stroke-width:1.08612"
     d="m 2141.2717,519.76338 c -150.6454,-1.69326 -277.9238,36.85951 -302.5971,47.70112 -51.9609,-12.92153 -108.6062,-20.85434 -170.2759,-21.86659 -113.0875,-1.83228 -210.8416,25.24319 -291.7735,80.43417 -35.1554,-13.08661 -126.0097,-44.27568 -237.1183,-62.17596 -192.08605,-30.9228 -344.72926,-7.49264 -453.65691,69.67589 -129.97442,92.08526 -189.9775,256.69239 -178.35496,489.23629 3.91219,78.2351 48.49143,318.9138 118.83912,549.4061 92.60114,303.3695 193.2655,475.1076 299.17483,510.4379 12.39694,4.1326 26.68861,7.0226 42.45241,7.0226 38.63531,0 86.00271,-17.4121 135.28521,-76.6619 60.11,-72.1095 122.2922,-142.4691 186.4643,-210.9878 41.6351,22.3446 87.375,34.8229 134.154,36.0741 0.091,1.2241 0.2117,2.4471 0.3214,3.6625 -8.0525,9.6023 -15.9381,19.3441 -23.6517,29.2201 -32.413,41.1475 -39.1592,49.7157 -143.4947,71.1969 -29.6803,6.1279 -108.504,22.371 -109.6639,77.6261 -1.2512,60.3717 93.1815,85.7275 103.9395,88.4146 37.4938,9.3873 73.616,14.0166 108.0633,14.0166 83.7754,0 157.5009,-27.5366 216.4194,-80.8128 -1.8127,215.2236 7.16,427.2987 33.002,491.914 21.1673,52.8992 72.8693,182.1751 236.1875,182.1654 23.9651,0 50.3409,-2.7885 79.3586,-9.0098 170.4496,-36.5359 244.4701,-111.874 273.1001,-277.9606 15.3229,-88.764 41.6169,-300.719 53.9856,-414.4136 26.0993,8.1437 59.7002,11.8722 96.0243,11.8624 75.7598,0 163.1812,-16.0968 218.004,-41.5424 61.5871,-28.6028 172.7237,-98.7858 152.5698,-159.7658 -10.4365,-31.5581 -44.0285,-41.709 -99.8364,-30.1874 -165.7021,34.1985 -225.0431,10.5101 -244.5259,-3.8375 128.7971,-196.209 234.7535,-433.3903 291.9136,-654.6788 27.0747,-104.8221 42.0303,-202.1728 43.2543,-281.5212 1.3533,-87.08912 -13.4821,-151.08764 -44.0736,-190.18238 C 2541.4227,606.62368 2360.3967,522.08224 2141.2717,519.76338 Z m 8.4657,67.96557 c 196.3393,4.33469 351.6514,77.78381 461.6087,218.2968 84.3369,107.77637 -8.5303,598.18235 -277.3799,1021.25595 -2.7044,-3.4375 -5.4211,-6.8651 -8.1538,-10.2809 l -3.4047,-4.2496 c 69.4734,-114.734 55.8896,-228.2544 43.7968,-328.8993 -4.969,-41.3039 -9.6626,-80.3162 -8.4657,-116.9618 1.2328,-38.8373 6.3669,-72.1533 11.3359,-104.3643 6.1028,-39.6932 12.3141,-80.7658 10.6023,-129.1837 1.2795,-5.0798 1.7967,-11.0803 1.1233,-18.2042 -4.3706,-46.4292 -57.3814,-185.38494 -165.425,-311.15499 -59.1021,-68.79241 -145.2902,-145.77746 -262.9686,-197.7014 50.6162,-10.49079 119.8319,-20.27404 197.3307,-18.55256 z m -482.4603,25.68497 c 249.7719,4.08598 409.9415,132.2673 500.3335,239.08788 77.8951,92.03963 120.0738,184.7597 136.9064,234.7699 -126.589,-12.8759 -212.6824,12.1115 -256.3247,74.5078 -94.9482,135.7275 51.9417,399.1575 122.5382,525.7639 12.9487,23.2005 24.1214,43.2529 27.6371,51.7756 22.9898,55.7156 52.7529,92.9145 74.4807,120.0642 6.6633,8.3196 13.124,16.3901 18.0387,23.4401 -38.3399,11.0523 -107.2071,36.591 -100.9294,164.2476 -5.0624,64.0537 -41.0554,363.9445 -59.3424,469.8994 -24.14,139.9786 -75.6499,192.114 -220.478,223.1748 v -0.01 c -150.1577,32.1739 -203.3249,-44.4415 -238.3608,-132.0269 -22.6129,-56.5433 -33.7283,-311.5242 -25.8409,-593.1106 0.101,-3.7449 -0.433,-7.3629 -1.4637,-10.7678 -0.9221,-6.7231 -2.3257,-13.3727 -4.197,-19.897 -11.7258,-40.9726 -40.3015,-75.2438 -74.5826,-89.4535 -13.6209,-5.6424 -38.6157,-15.9956 -68.6544,-8.3113 6.4048,-26.3948 17.5134,-56.2032 29.5606,-88.4783 l 5.053,-13.5743 c 5.688,-15.3045 12.8279,-31.1618 20.3742,-47.9477 40.7978,-90.6321 96.6702,-214.7736 36.0312,-495.2185 -22.7139,-105.0437 -98.5654,-156.3429 -213.5493,-144.4238 -68.9303,7.1314 -131.9992,34.9441 -163.4553,50.8926 -6.7643,3.4234 -12.9488,6.7377 -18.7291,9.958 8.7801,-105.8344 41.949,-303.62781 166.0247,-428.77225 78.1244,-78.77816 182.1665,-117.6887 308.9293,-115.59033 z m -666.2421,5.49211 c 125.7685,2.5853 247.6982,36.02756 314.0586,57.65117 -1.6933,1.6748 -3.461,3.2386 -5.1358,4.94163 -193.5958,195.50955 -189.0035,529.54537 -188.5245,549.96767 -0.018,7.8776 0.6433,19.032 1.5448,34.3734 3.3311,56.1847 9.536,160.749 -7.0306,279.1649 -15.387,110.0409 18.5351,217.7457 93.0524,295.5029 7.6473,7.9644 15.6855,15.5457 24.0844,22.713 -33.1689,35.5236 -105.2563,114.0803 -181.9903,206.3882 -54.29827,65.2853 -91.79233,52.7697 -104.12411,48.6652 C 866.62667,2091.4753 773.39971,1921.6595 691.20683,1652.3777 620.08582,1419.3743 578.52404,1185.0718 575.22984,1119.3716 564.84885,911.58457 615.21839,766.77391 724.94542,688.95262 803.07286,633.55046 903.21502,616.89524 1001.035,618.90603 Z M 2226.0047,1152.041 c 24.17,-1.0264 52.6239,0.1606 86.114,4.3179 v 0 c -0.5615,33.5632 -5.1811,64.034 -10.0773,95.8398 -5.2742,34.2083 -10.7224,69.575 -12.0931,112.507 -1.3533,41.7828 3.8651,85.2211 8.9079,127.2332 10.1976,84.8517 20.6611,172.2088 -19.8412,258.4041 -6.7296,-11.9212 -12.7211,-24.243 -17.9464,-36.8951 -5.0342,-12.2047 -15.9677,-31.8066 -31.1071,-58.9367 -58.8903,-105.615 -196.7987,-352.9383 -126.2022,-453.8591 15.7728,-22.529 49.7355,-45.5336 122.2454,-48.6127 z m -820.2167,10.8712 c 12.5839,0.081 24.8539,1.3261 36.5372,4.003 42.6474,9.7652 68.6367,38.8098 79.4414,88.7646 55.9175,258.6335 7.4006,366.4301 -31.5844,453.0587 -8.034,17.8438 -15.6282,34.7138 -22.1068,52.1623 l -5.0244,13.4916 c -12.7173,34.1062 -24.5526,65.8211 -31.8882,95.9336 -63.8506,-0.1846 -125.9625,-27.463 -173.1922,-76.7542 v 0.01 c -60.0601,-62.6722 -87.338,-149.8426 -74.8498,-239.1865 17.4854,-125.088 11.0342,-234.0351 7.5652,-292.5659 -0.4877,-8.1915 -0.9218,-15.37 -1.1694,-21.0298 24.7452,-21.9436 128.1841,-78.4484 216.2714,-77.8854 z m 803.7945,20.9884 c -6.8495,-0.1571 -14.0586,0.2849 -21.1729,1.2744 -28.4193,3.9567 -55.9725,16.7853 -53.6721,33.6733 1.842,13.1323 25.5575,35.5507 53.626,35.5507 2.3742,0 4.7678,-0.1564 7.1801,-0.4964 18.7366,-2.5947 32.4855,-14.4955 39.0207,-21.3511 9.939,-10.4549 15.6997,-22.1053 14.6419,-29.6799 -1.7677,-12.6383 -19.0753,-18.4997 -39.6237,-18.971 z m -795.3877,16.9345 c -17.2166,-0.154 -31.9004,3.2384 -40.3762,9.6573 -6.3505,4.8137 -8.3205,10.391 -8.8538,14.2283 -1.4174,10.1693 5.7066,21.4151 10.0869,27.2139 12.3871,16.4177 30.481,27.7003 48.39,30.1843 2.5947,0.3682 5.1805,0.5346 7.7481,0.5346 29.8649,0 57.0229,-23.2564 59.4156,-40.4192 2.9901,-21.4986 -28.2175,-35.8276 -58.4865,-40.0341 v -0.01 c -6.1658,-0.8583 -12.1852,-1.3041 -17.9241,-1.3555 z m 914.8839,741.3751 c 2.8815,2.3471 6.0374,4.6744 9.4966,6.9574 55.33,36.5174 154.016,40.4573 293.3407,11.697 l 1.5274,-0.3039 c -18.7931,17.569 -50.9468,41.1469 -96.5398,62.3239 -39.2055,18.1946 -104.815,31.8423 -167.1385,34.7791 -68.8391,3.2204 -103.8825,-7.7124 -112.1283,-14.4398 -3.8665,-79.5515 25.7392,-87.8621 57.0769,-96.6607 4.9233,-1.3805 9.7273,-2.7325 14.365,-4.353 z m -813.3022,9.6478 c 7.6121,-1.0975 14.7523,1.8653 23.9555,5.6846 14.9178,6.1659 29.448,24.8665 35.3391,45.4451 2.7881,9.7175 5.9173,28.1614 -4.3259,42.5177 -86.4722,121.0769 -212.4811,119.5199 -302.9741,96.8723 -18.6454,-4.6584 -35.414,-12.7473 -45.251,-19.4563 8.2176,-3.8644 22.8414,-9.128 48.2055,-14.3555 122.7408,-25.262 141.6993,-43.0991 183.0945,-95.6584 9.4883,-12.0548 20.2462,-25.7118 35.1466,-42.3522 l 0.018,-0.017 c 11.0947,-12.4246 19.1801,-17.5823 26.7923,-18.6798 z" /></svg>
