<?xml version="1.0" encoding="UTF-8" standalone="no"?>
<!-- Generator: Adobe Illustrator 24.3.0, SVG Export Plug-In . SVG Version: 6.00 Build 0)  -->

<svg
   version="1.0"
   id="katman_1"
   x="0px"
   y="0px"
   viewBox="0 0 532 396"
   style="enable-background:new 0 0 532 396;"
   xml:space="preserve"
   sodipodi:docname="pwa.svg"
   inkscape:version="1.3.2 (091e20ef0f, 2023-11-25)"
   xmlns:inkscape="http://www.inkscape.org/namespaces/inkscape"
   xmlns:sodipodi="http://sodipodi.sourceforge.net/DTD/sodipodi-0.dtd"
   xmlns="http://www.w3.org/2000/svg"
   xmlns:svg="http://www.w3.org/2000/svg"><defs
   id="defs4" /><sodipodi:namedview
   id="namedview4"
   pagecolor="#ffffff"
   bordercolor="#000000"
   borderopacity="0.25"
   inkscape:showpageshadow="2"
   inkscape:pageopacity="0.0"
   inkscape:pagecheckerboard="0"
   inkscape:deskcolor="#d1d1d1"
   inkscape:zoom="2.1414141"
   inkscape:cx="265.94575"
   inkscape:cy="198"
   inkscape:window-width="2560"
   inkscape:window-height="1052"
   inkscape:window-x="0"
   inkscape:window-y="0"
   inkscape:window-maximized="1"
   inkscape:current-layer="katman_1" />
<style
   type="text/css"
   id="style1">
	.st0{clip-path:url(#SVGID_2_);}
	.st1{fill:#3D3D3D;}
	.st2{fill:#5A0FC8;}
</style>
<path
   class="st1"
   d="M371.32,251.58l12.84-32.47h37.08l-17.6-49.26l22.01-55.65l63.03,167.36H442.2l-10.77-29.98H371.32z"
   id="path1"
   style="enable-background:new 0 0 532 396;fill:#ffffff" /><path
   class="st2"
   d="M331.66,281.55l67.48-167.36h-44.74l-46.16,108.15l-32.82-108.15h-34.39l-35.24,108.15l-24.86-49.28    l-22.49,69.3l22.84,39.19h44.03l31.85-96.99l30.37,96.99H331.66z"
   id="path2"
   style="enable-background:new 0 0 532 396;fill:#ffffff" /><path
   class="st1"
   d="M86.64,224.1h27.55c8.35,0,15.78-0.93,22.3-2.8l7.13-21.95l19.92-61.36c-1.52-2.4-3.25-4.68-5.2-6.82    c-10.23-11.32-25.19-16.98-44.88-16.98H44.17v167.36h42.46V224.1z M123.11,152.7c3.99,4.02,5.99,9.4,5.99,16.14    c0,6.79-1.76,12.18-5.27,16.16c-3.85,4.42-10.94,6.63-21.27,6.63H86.64v-44.96h16.04C112.31,146.67,119.12,148.68,123.11,152.7z"
   id="path3"
   style="enable-background:new 0 0 532 396;fill:#ffffff" />
</svg>
