<?xml version="1.0" encoding="UTF-8" standalone="no"?>
<svg
   width="20px"
   height="20px"
   viewBox="0 0 20 20"
   version="1.1"
   id="svg1"
   sodipodi:docname="python.svg"
   inkscape:version="1.3.2 (091e20ef0f, 2023-11-25)"
   xmlns:inkscape="http://www.inkscape.org/namespaces/inkscape"
   xmlns:sodipodi="http://sodipodi.sourceforge.net/DTD/sodipodi-0.dtd"
   xmlns="http://www.w3.org/2000/svg"
   xmlns:svg="http://www.w3.org/2000/svg">
  <sodipodi:namedview
     id="namedview1"
     pagecolor="#ffffff"
     bordercolor="#000000"
     borderopacity="0.25"
     inkscape:showpageshadow="2"
     inkscape:pageopacity="0.0"
     inkscape:pagecheckerboard="0"
     inkscape:deskcolor="#d1d1d1"
     inkscape:zoom="42.4"
     inkscape:cx="9.9882075"
     inkscape:cy="10"
     inkscape:window-width="2560"
     inkscape:window-height="1052"
     inkscape:window-x="0"
     inkscape:window-y="0"
     inkscape:window-maximized="1"
     inkscape:current-layer="svg1" />
  <!-- Generator: Sketch 3.8.1 (29687) - http://www.bohemiancoding.com/sketch -->
  <title
     id="title1">python [#127]</title>
  <desc
     id="desc1">Created with Sketch.</desc>
  <defs
     id="defs1" />
  <g
     id="Page-1"
     stroke="none"
     stroke-width="1"
     fill="none"
     fill-rule="evenodd"
     style="fill:#ffffff"
     transform="matrix(0.61556604,0,0,0.61556604,3.8443396,3.8443396)">
    <g
       id="Dribbble-Light-Preview"
       transform="translate(-340,-7599)"
       fill="#000000"
       style="fill:#ffffff">
      <g
         id="icons"
         transform="translate(56,160)"
         style="fill:#ffffff">
        <path
           d="m 296.744,7457.458 c -0.482,0 -0.872,-0.3921 -0.872,-0.8766 0,-0.4845 0.39,-0.8755 0.872,-0.8755 0.482,0 0.872,0.391 0.872,0.8755 0,0.4845 -0.39,0.8766 -0.872,0.8766 m -2.672,1.542 c 5.078,0 4.761,-2.2135 4.761,-2.2135 l -0.006,-2.2929 h -4.845 v -0.6886 h 6.769 c 0,0 3.249,0.3709 3.249,-4.7789 0,-5.1497 -2.835,-4.9678 -2.835,-4.9678 h -1.693 v 2.3904 c 0,0 0.091,2.8499 -2.79,2.8499 h -4.806 c 0,0 -2.7,-0.043 -2.7,2.6236 v 4.4089 c 0,0 -0.41,2.6689 4.896,2.6689 m -2.815,-18.458 c 0.482,0 0.871,0.3921 0.871,0.8766 0,0.4845 -0.389,0.8755 -0.871,0.8755 -0.482,0 -0.872,-0.391 -0.872,-0.8755 0,-0.4845 0.39,-0.8766 0.872,-0.8766 m 2.671,-1.542 c -5.077,0 -4.76,2.2135 -4.76,2.2135 l 0.006,2.2929 h 4.845 v 0.6886 h -6.77 c 0,0 -3.249,-0.3709 -3.249,4.7789 0,5.1497 2.836,4.9678 2.836,4.9678 h 1.692 v -2.3904 c 0,0 -0.091,-2.8499 2.791,-2.8499 h 4.805 c 0,0 2.7,0.043 2.7,-2.6236 v -4.4089 c 0,0 0.41,-2.6689 -4.896,-2.6689"
           id="python-[#127]"
           style="fill:#ffffff" />
      </g>
    </g>
  </g>
</svg>
