<?xml version="1.0" encoding="UTF-8" standalone="no"?>
<svg
   width="256px"
   height="256px"
   viewBox="0 0 256 256"
   version="1.1"
   preserveAspectRatio="xMidYMid"
   id="svg2"
   sodipodi:docname="typescript.svg"
   inkscape:version="1.3.2 (091e20ef0f, 2023-11-25)"
   xmlns:inkscape="http://www.inkscape.org/namespaces/inkscape"
   xmlns:sodipodi="http://sodipodi.sourceforge.net/DTD/sodipodi-0.dtd"
   xmlns="http://www.w3.org/2000/svg"
   xmlns:svg="http://www.w3.org/2000/svg">
  <defs
     id="defs2" />
  <sodipodi:namedview
     id="namedview2"
     pagecolor="#ffffff"
     bordercolor="#000000"
     borderopacity="0.25"
     inkscape:showpageshadow="2"
     inkscape:pageopacity="0.0"
     inkscape:pagecheckerboard="0"
     inkscape:deskcolor="#d1d1d1"
     inkscape:zoom="2.3422912"
     inkscape:cx="158.60539"
     inkscape:cy="161.38045"
     inkscape:window-width="2560"
     inkscape:window-height="1052"
     inkscape:window-x="0"
     inkscape:window-y="0"
     inkscape:window-maximized="1"
     inkscape:current-layer="g2" />
  <g
     id="g2"
     style="fill:#ffffff">
    <path
       id="polygon1"
       style="fill:#ffffff;stroke-width:0.616428"
       d="M 49.097226,49.097226 V 128 206.90277 H 128 206.90277 V 128 49.097226 H 128 Z M 168.74806,121.25301 c 2.81208,-0.0103 5.97604,0.22624 7.68247,0.64893 4.00775,1.00194 7.06344,2.78069 9.86886,5.6863 1.45282,1.55301 3.60751,4.38394 3.78285,5.06026 0.0501,0.20038 -6.81365,4.80871 -10.9717,7.3887 -0.15029,0.10019 -0.75158,-0.55117 -1.42789,-1.55311 -2.02893,-2.95572 -4.15769,-4.23283 -7.414,-4.45827 -4.78425,-0.32562 -7.86523,2.17984 -7.84019,6.36294 0,1.22737 0.17566,1.95378 0.67663,2.95572 1.05203,2.17922 3.006,3.48145 9.14288,6.13659 11.29686,4.8594 16.13114,8.06591 19.13695,12.62473 3.3565,5.08484 4.10823,13.2002 1.82882,19.23689 -2.50485,6.5627 -8.71792,11.02166 -17.45984,12.49952 -2.70524,0.47592 -9.11713,0.4008 -12.02275,-0.12521 -6.33727,-1.12719 -12.34885,-4.25838 -16.05602,-8.36633 -1.45281,-1.6031 -4.28326,-5.78664 -4.10791,-6.08722 0.0751,-0.1002 0.72677,-0.50123 1.45317,-0.92705 0.70136,-0.40078 3.35604,-1.92791 5.86088,-3.38073 l 4.53412,-2.63065 0.95113,1.40262 c 1.32757,2.02892 4.23391,4.81007 5.9873,5.73687 5.03474,2.65514 11.94752,2.27936 15.35411,-0.77656 1.45281,-1.32757 2.05395,-2.70625 2.05395,-4.73517 0,-1.82854 -0.22563,-2.62912 -1.17747,-4.00679 -1.22737,-1.75339 -3.73151,-3.2314 -10.84527,-6.31236 -8.14076,-3.50679 -11.64827,-5.68619 -14.85447,-9.14288 -1.85359,-2.00388 -3.60666,-5.21057 -4.33306,-7.89076 -0.60116,-2.22932 -0.75163,-7.81436 -0.27571,-10.06873 1.67825,-7.86522 7.61466,-13.35152 16.18124,-14.97968 1.04264,-0.19725 2.60367,-0.29241 4.29092,-0.29857 z m -57.10025,0.75728 c 15.15432,-0.025 27.65327,0.025 27.72842,0.12522 0.10019,0.0751 0.17577,3.00664 0.17577,6.51342 v 6.33645 h -10.27099 -10.26978 v 29.1816 29.1816 h -7.26349 -7.26471 v -29.1816 -29.1816 H 94.213248 83.943463 l 0.05057,-6.46166 0.07465,-6.43758 z" />
  </g>
</svg>
